<?xml version="1.0" encoding="UTF-8" standalone="no"?>
<!-- Created with Inkscape (http://www.inkscape.org/) -->

<svg
   xmlns:dc="http://purl.org/dc/elements/1.1/"
   xmlns:cc="http://creativecommons.org/ns#"
   xmlns:rdf="http://www.w3.org/1999/02/22-rdf-syntax-ns#"
   xmlns:svg="http://www.w3.org/2000/svg"
   xmlns="http://www.w3.org/2000/svg"
   xmlns:sodipodi="http://sodipodi.sourceforge.net/DTD/sodipodi-0.dtd"
   xmlns:inkscape="http://www.inkscape.org/namespaces/inkscape"
   version="1.1"
   id="svg2"
   xml:space="preserve"
   width="1333.3333"
   height="1066.6667"
   viewBox="0 0 1333.3333 1066.6667"
   sodipodi:docname="26820.svg"
   inkscape:version="0.92.5 (2060ec1f9f, 2020-04-08)"><metadata
     id="metadata8"><rdf:RDF><cc:Work
         rdf:about=""><dc:format>image/svg+xml</dc:format><dc:type
           rdf:resource="http://purl.org/dc/dcmitype/StillImage" /><dc:title></dc:title></cc:Work></rdf:RDF></metadata><defs
     id="defs6" /><sodipodi:namedview
     pagecolor="#ffffff"
     bordercolor="#666666"
     borderopacity="1"
     objecttolerance="10"
     gridtolerance="10"
     guidetolerance="10"
     inkscape:pageopacity="0"
     inkscape:pageshadow="2"
     inkscape:window-width="1920"
     inkscape:window-height="1016"
     id="namedview4"
     showgrid="false"
     inkscape:zoom="1"
     inkscape:cx="732.80988"
     inkscape:cy="533.33337"
     inkscape:window-x="0"
     inkscape:window-y="27"
     inkscape:window-maximized="1"
     inkscape:current-layer="g10" /><g
     id="g10"
     inkscape:groupmode="layer"
     inkscape:label="ink_ext_XXXXXX"
     transform="matrix(1.3333333,0,0,-1.3333333,0,1066.6667)"><g
       id="g12"
       transform="scale(0.1)"><path
         d="M 0,0 H 10000 V 8000 H 0 Z"
         style="fill:#ffffff;fill-opacity:1;fill-rule:nonzero;stroke:none"
         id="path14"
         inkscape:connector-curvature="0" /><path
         d="m 4569.99,2289.7 c -271.1,-1 -542.19,-9.07 -812.79,-46.35 -102.04,-14.05 -201.93,-44.97 -304.2,-57.44 -204.27,-24.91 -404.89,-71.38 -609.88,-92.81 -165.08,-17.27 -330.86,-27.46 -495.45,-49.35 -154.33,-20.54 -325.17,-15.8 -478.3,18.13 -113.37,25.1 -227.26,39.24 -338.72,79.57 -124.69,45.13 -260.15,77.39 -390.06,76.23 -185.258,-1.65 -365.672,-1.85 -542.957,-81.52 -62.238,-27.97 -138.426,-73.94 -185.68,-132.64 -108.187,-134.35 -122.824,-469.59 -14.808,-608.95 181.945,-234.53 570.257,-326.55 825.285,-330.9 279.45,-4.76 550.94,20.93 830.8,36.04 260.06,14.04 519.47,34.01 779.95,33.31 532.02,-1.44 1064.11,0 1595.17,44.01 498.95,41.36 999.14,27.16 1499.18,27.16 512.76,0 1022.06,-4.99 1531.12,-89.4 221.81,-36.77 447.78,-49.64 670.7,-75.41 199.64,-23.07 391.49,0.46 590.34,21.78 166.97,17.91 332.85,71.03 484.54,160.81 120.08,71.07 334.14,291.87 370.96,461.51 103.24,475.59 -1454.85,464.16 -1694.08,463.09 -267.61,-1.2 -537.36,-12.1 -804.76,0.54 -112.49,5.31 -223.32,32.54 -333.1,62.37 -109.35,29.73 -219.53,22.17 -330.42,34.66 -462.43,52.08 -925.9,44.47 -1389.8,44.47 -150.96,0 -302,1.64 -453.04,1.09"
         style="fill:#f7f7f7;fill-opacity:1;fill-rule:nonzero;stroke:none"
         id="path16"
         inkscape:connector-curvature="0" /><path
         d="M 2022.51,2016.05 H 7758.68 V 5634.6 H 2022.51 Z"
         style="fill:#e3e3e3;fill-opacity:1;fill-rule:nonzero;stroke:none"
         id="path18"
         inkscape:connector-curvature="0" /><path
         d="m 2022.51,5699.54 h 5736.17 v 217.109 H 2022.51 Z"
         style="fill:#3b455a;fill-opacity:1;fill-rule:nonzero;stroke:none"
         id="path20"
         inkscape:connector-curvature="0" /><path
         d="m 2022.51,5414.54 h 5736.17 v 285 H 2022.51 Z"
         style="fill:#7db5db;fill-opacity:1;fill-rule:nonzero;stroke:none"
         id="path22"
         inkscape:connector-curvature="0" /><path
         d="M 2616.43,5473.28 H 7494.7 v 121.668 H 2616.43 Z"
         style="fill:#f3f3f3;fill-opacity:1;fill-rule:nonzero;stroke:none"
         id="path24"
         inkscape:connector-curvature="0" /><path
         d="m 2262.61,5817.1 c 0,-19.72 -16.25,-35.71 -36.31,-35.71 -20.05,0 -36.3,15.99 -36.3,35.71 0,19.73 16.25,35.72 36.3,35.72 20.06,0 36.31,-15.99 36.31,-35.72"
         style="fill:#f7f7f7;fill-opacity:1;fill-rule:nonzero;stroke:none"
         id="path26"
         inkscape:connector-curvature="0" /><path
         d="m 2368.93,5817.1 c 0,-19.72 -16.25,-35.71 -36.31,-35.71 -20.05,0 -36.3,15.99 -36.3,35.71 0,19.73 16.25,35.72 36.3,35.72 20.06,0 36.31,-15.99 36.31,-35.72"
         style="fill:#d7e8f4;fill-opacity:1;fill-rule:nonzero;stroke:none"
         id="path28"
         inkscape:connector-curvature="0" /><path
         d="m 2475.25,5817.1 c 0,-19.72 -16.26,-35.71 -36.3,-35.71 -20.06,0 -36.31,15.99 -36.31,35.71 0,19.73 16.25,35.72 36.31,35.72 20.04,0 36.3,-15.99 36.3,-35.72"
         style="fill:#7db5db;fill-opacity:1;fill-rule:nonzero;stroke:none"
         id="path30"
         inkscape:connector-curvature="0" /><path
         d="m 2418.27,5475.74 v 116.74 l 42.24,-58.37 -42.24,-58.37"
         style="fill:#a8cbe4;fill-opacity:1;fill-rule:nonzero;stroke:none"
         id="path32"
         inkscape:connector-curvature="0" /><path
         d="m 2246.98,5475.74 -42.24,58.37 42.24,58.37 v -116.74"
         style="fill:#a8cbe4;fill-opacity:1;fill-rule:nonzero;stroke:none"
         id="path34"
         inkscape:connector-curvature="0" /><path
         d="m 950.281,1596.57 -8.379,-65.15 121.938,-81.92 73.54,56.78 -56.78,73.54 -121.944,81.92 -8.375,-65.17"
         style="fill:#40495f;fill-opacity:1;fill-rule:nonzero;stroke:none"
         id="path36"
         inkscape:connector-curvature="0" /><path
         d="m 946.16,1618.45 94.04,830.99 -113.145,930.3 25.441,197.89 505.374,19.2 18.23,-322.09 -84.83,-826.58 -319.19,-872.17 -125.92,42.46"
         style="fill:#587bc9;fill-opacity:1;fill-rule:nonzero;stroke:none"
         id="path38"
         inkscape:connector-curvature="0" /><path
         d="m 1505.31,4516.28 254.2,-69.24 294,-520.94 -139.27,-128.94 -195.99,232.1 -212.94,487.02"
         style="fill:#3b455a;fill-opacity:1;fill-rule:nonzero;stroke:none"
         id="path40"
         inkscape:connector-curvature="0" /><path
         d="m 1828.69,3503.7 1.33,-838.58 -168.79,-1079.52 -121.5,1.21 -66.78,998.31 -156.3,999.21 512.04,-80.63"
         style="fill:#587bc9;fill-opacity:1;fill-rule:nonzero;stroke:none"
         id="path42"
         inkscape:connector-curvature="0" /><path
         d="m 1539.92,1535.57 130.73,-67.01 66.35,65.04 -65.04,66.35 -131.38,1.31 -0.66,-65.69"
         style="fill:#40495f;fill-opacity:1;fill-rule:nonzero;stroke:none"
         id="path44"
         inkscape:connector-curvature="0" /><path
         d="m 874.758,3218.5 c 1.156,36.34 3.18,66.67 3.465,77.49 2.601,97.49 11.289,194.75 23.492,291.54 10.933,86.74 24.738,302.07 39.586,388.27 12.254,71.17 54.957,248.82 85.819,314.84 76.74,164.17 53.03,179.34 390.11,228.09 147.74,21.36 182.65,-70.71 303.43,-176.58 11.91,-10.45 11.26,-72.62 14.02,-89.08 4.87,-29 10.08,-57.94 16.06,-86.75 4.7,-22.64 9.89,-45.22 15.7,-67.64 l -0.01,0.01 c 0,0 101.39,-461.42 168.44,-559.42 67.05,-98 205.58,-235 -26.14,-318.65 -41.06,-13.28 -82.38,-25.91 -125.13,-32.66 0,0 -189.51,21.06 -286.97,20.33 -89.75,-0.66 -179.88,-9.75 -268.12,-24.97 -59.01,-9.86 -119.23,-24.19 -172.02,-51.77 -50.36,-26.3 -86.701,-65 -137.799,-92.23 -4.839,-2.58 -10.144,-5.26 -15.644,-4.5 -29.348,4.08 -30.731,107.19 -28.289,183.68"
         style="fill:#3b455a;fill-opacity:1;fill-rule:nonzero;stroke:none"
         id="path46"
         inkscape:connector-curvature="0" /><path
         d="m 1417.62,4472.43 c -17.01,-8.4 -57.15,-11.41 -99.03,4.99 -8.44,3.3 -14.13,11.44 -14.01,20.5 0.33,25.44 2.37,50.85 6.12,76.01 -31.41,11.05 -67.7,27.61 -73.18,60.44 -1.72,10.35 0.07,20.92 1.85,31.25 7.38,42.72 14.77,85.44 22.15,128.16 2.55,14.77 5.27,29.98 13.3,42.64 14.1,22.21 41.46,31.93 67.39,36.43 66.14,11.49 138.23,-2.85 189.52,-46.17 13.65,-11.53 25.99,-25.4 32.01,-42.22 9.28,-25.94 2.34,-54.55 -4.66,-81.2 -6.46,-24.6 -12.91,-49.19 -19.37,-73.79 -7.43,-28.29 -18.16,-60.45 -45.41,-71.06 -14.48,-5.63 -31.56,-3.99 -44.67,-12.32 -23.1,-14.69 -19.99,-49.05 -32.01,-73.66"
         style="fill:#eac2a7;fill-opacity:1;fill-rule:nonzero;stroke:none"
         id="path48"
         inkscape:connector-curvature="0" /><path
         d="m 1799.4,4898.45 c 6.5,10.67 13.5,20.96 21.33,30.62 16.97,20.91 37.86,38.84 51.51,62.05 13.65,23.21 18.45,54.68 2.08,76.05 -10.57,13.79 -27.72,20.69 -44.39,25.59 -54.93,16.17 -114.22,17.26 -169.71,3.14 -52.86,-13.45 -100.16,-35.73 -153.36,-15.86 -49.99,18.67 -86.1,11.06 -138.35,-7.58 -56.54,-20.17 -132.44,-24.93 -183.62,-53.42 -21.37,-11.89 -38.43,-30.47 -51.72,-51 -46.05,-71.13 -46.31,-169.21 -0.63,-240.57 10.25,-16.02 22.52,-30.65 35.4,-44.63 26.68,-28.92 58.59,-64.66 95.28,-75.37 0.87,32.82 -29.03,136.32 -3.82,163.23 40.01,42.69 130.46,27.8 180.09,17.29 54.14,-11.47 102.39,-49.81 156.06,-57.99 38.62,-5.9 87.91,13.04 120.75,33 40.52,24.65 59.39,96.51 83.1,135.45"
         style="fill:#3b455a;fill-opacity:1;fill-rule:nonzero;stroke:none"
         id="path50"
         inkscape:connector-curvature="0" /><path
         d="M 1137.38,4455.63 927.055,4271.34 692.422,3778.26 988.773,3425.7 l 50.987,197.16 97.62,832.77"
         style="fill:#3b455a;fill-opacity:1;fill-rule:nonzero;stroke:none"
         id="path52"
         inkscape:connector-curvature="0" /><path
         d="M 6684.56,3802.88 H 3743.87 l -5.8,67.92 h 2868.59 v 900.94 h 77.9 v -968.86"
         style="fill:#dedede;fill-opacity:1;fill-rule:nonzero;stroke:none"
         id="path54"
         inkscape:connector-curvature="0" /><path
         d="m 3069.83,3870.8 h 3536.83 v 968.871 H 3069.83 Z"
         style="fill:#ffffff;fill-opacity:1;fill-rule:nonzero;stroke:none"
         id="path56"
         inkscape:connector-curvature="0" /><path
         d="m 2022.51,2260.82 -83.03,972.15 c 42.21,18.94 68.44,40.12 83.03,62.64 V 2260.82 m 0,1145.58 c -21.19,46.6 -60.34,92.97 -87.64,132.87 -8.2,11.98 -16.91,29.4 -25.89,50.74 l -20.27,237.39 25.53,-30.24 108.27,100.24 v -491 m 0,574.63 -101.98,180.71 101.98,8.71 v -189.42"
         style="fill:#f5f5f5;fill-opacity:1;fill-rule:nonzero;stroke:none"
         id="path58"
         inkscape:connector-curvature="0" /><path
         d="m 2042.78,2023.4 -20.27,237.42 v 1034.79 c 22.57,34.85 17.22,72.89 0,110.79 v 491 l 31,28.7 -31,54.93 v 189.42 l 1047.32,89.44 V 3870.8 h 77.9 v -67.92 h 596.14 L 3882.43,2180.52 2042.78,2023.4"
         style="fill:#dadada;fill-opacity:1;fill-rule:nonzero;stroke:none"
         id="path60"
         inkscape:connector-curvature="0" /><path
         d="m 1914.24,3797.16 -25.53,30.24 -28.12,329.22 59.94,5.12 101.98,-180.71 31,-54.93 -31,-28.7 -108.27,-100.24"
         style="fill:#394256;fill-opacity:1;fill-rule:nonzero;stroke:none"
         id="path62"
         inkscape:connector-curvature="0" /><path
         d="m 1939.48,3232.97 -30.5,357.04 c 8.98,-21.34 17.69,-38.76 25.89,-50.74 27.3,-39.9 66.45,-86.27 87.64,-132.87 17.22,-37.9 22.57,-75.94 0,-110.79 -14.59,-22.52 -40.82,-43.7 -83.03,-62.64"
         style="fill:#394256;fill-opacity:1;fill-rule:nonzero;stroke:none"
         id="path64"
         inkscape:connector-curvature="0" /><path
         d="m 3743.87,3802.88 h -596.14 v 67.92 h 590.34 l 5.8,-67.92"
         style="fill:#d5d5d5;fill-opacity:1;fill-rule:nonzero;stroke:none"
         id="path66"
         inkscape:connector-curvature="0" /><path
         d="m 3738.07,3870.8 h -668.24 v 389.09 l 630.41,53.85 37.83,-442.94"
         style="fill:#f5f5f5;fill-opacity:1;fill-rule:nonzero;stroke:none"
         id="path68"
         inkscape:connector-curvature="0" /><path
         d="M 3801.53,2238.3 1668.32,2056.11 1486.12,4189.33 3619.34,4371.52 3801.53,2238.3"
         style="fill:#eac5b0;fill-opacity:1;fill-rule:nonzero;stroke:none"
         id="path70"
         inkscape:connector-curvature="0" /><path
         d="m 3506.36,2427.08 -1764.15,1486.52 42.22,50.11 1764.15,-1486.52 -42.22,-50.11"
         style="fill:#ffffff;fill-opacity:1;fill-rule:nonzero;stroke:none"
         id="path72"
         inkscape:connector-curvature="0" /><path
         d="m 1927.19,2292.21 -50.11,42.22 1486.53,1764.15 50.11,-42.21 -1486.53,-1764.16"
         style="fill:#ffffff;fill-opacity:1;fill-rule:nonzero;stroke:none"
         id="path74"
         inkscape:connector-curvature="0" /><path
         d="m 1777.19,3944.07 136.39,-1596.88 1596.88,136.38 -136.39,1596.89 z m 76.68,-1667.74 -147.54,1727.45 1727.45,147.54 147.54,-1727.45 -1727.45,-147.54"
         style="fill:#ffffff;fill-opacity:1;fill-rule:nonzero;stroke:none"
         id="path76"
         inkscape:connector-curvature="0" /><path
         d="m 1637.32,3530.31 119.04,35.57 -12.98,51.54 -86.92,-6.31 5.18,27.23 -98.16,-42.85 6.27,-55.39 67.57,-9.79"
         style="fill:#d6c7ac;fill-opacity:1;fill-rule:nonzero;stroke:none"
         id="path78"
         inkscape:connector-curvature="0" /><path
         d="m 4061.27,1645.59 -75.16,21.25 -120.96,-183.24 h 120.96 l 72.84,37.15 2.32,124.84"
         style="fill:#282625;fill-opacity:1;fill-rule:nonzero;stroke:none"
         id="path80"
         inkscape:connector-curvature="0" /><path
         d="m 5402.57,2015.88 c 0,0 105.01,-76.92 103.66,-144.89 0,0 11.18,-143.22 -17.25,-199.6 l -157.96,-143.9 -291.83,18.71 -94.21,413.56 457.59,56.12"
         style="fill:#313b4c;fill-opacity:1;fill-rule:nonzero;stroke:none"
         id="path82"
         inkscape:connector-curvature="0" /><path
         d="m 5082.29,1923.96 c 0,0 126.01,29.6 169.16,-56.35 l 85.85,-158.56 -151.28,-201.51 -1146.15,3.68 2.33,136.88 370.8,104.65 c -32.58,21.91 -59.82,56.57 -76.2,91.81 -29.36,63.18 -6.44,109.96 17.19,169.34 7.25,18.21 41.8,119.15 71.48,111.22 l 656.82,-201.16"
         style="fill:#3b455a;fill-opacity:1;fill-rule:nonzero;stroke:none"
         id="path84"
         inkscape:connector-curvature="0" /><path
         d="m 5915.94,3070.31 90.19,59.65 -23.82,39.66 -70.81,-27.18 -2.55,23.99 -70.96,-60.45 19.19,-44.56 58.76,8.89"
         style="fill:#a0675c;fill-opacity:1;fill-rule:nonzero;stroke:none"
         id="path86"
         inkscape:connector-curvature="0" /><path
         d="m 5132.85,3227.91 278.5,-253.14 443.81,159.73 33.55,-90.38 -524.45,-371.98 -353.6,283.23 122.19,272.54"
         style="fill:#587bc9;fill-opacity:1;fill-rule:nonzero;stroke:none"
         id="path88"
         inkscape:connector-curvature="0" /><path
         d="m 4176.28,3826.04 -13.26,107.31 45.62,7.67 25.35,-71.49 19.9,13.64 0.15,-93.22 -46.34,-14.36 -31.42,50.45"
         style="fill:#a0675c;fill-opacity:1;fill-rule:nonzero;stroke:none"
         id="path90"
         inkscape:connector-curvature="0" /><path
         d="m 4804.88,3333.15 -373.38,47.23 -166.93,441.15 -90.51,-33.21 58,-640.36 445.04,-84.77 127.78,269.96"
         style="fill:#587bc9;fill-opacity:1;fill-rule:nonzero;stroke:none"
         id="path92"
         inkscape:connector-curvature="0" /><path
         d="m 5347.43,2246.44 c -79.08,220.2 -94.35,453.63 -122.81,684.77 -8.42,68.2 -17.28,137.89 -47.78,199.46 -35.03,70.71 -90.33,106.82 -153.96,125.46 -81.01,23.73 -175.54,19.13 -259.04,21.5 -79.15,-0.09 -139.41,-299.6 -215.37,-446.31 -46.55,-89.91 -94.93,-169.67 -125.14,-267.08 -28.98,-93.49 -56.65,-188.56 -72.12,-285.34 -23.38,-146.14 -91.96,-249.88 -21.7,-297.04 6.36,-1.88 12.49,-3.74 18.31,-5.62 113.93,-36.67 231.43,-62.73 350.6,-74.52 105.71,-10.47 212.7,-9.51 318.05,4.34 144.22,18.98 283.74,43.99 408.82,123.6 -25.95,72.25 -51.9,144.52 -77.86,216.78"
         style="fill:#587bc9;fill-opacity:1;fill-rule:nonzero;stroke:none"
         id="path94"
         inkscape:connector-curvature="0" /><path
         d="m 4717.95,3497.59 c 40.61,137.45 237.52,191.28 288.8,34.73 15.41,-47.04 25.4,-97.15 17.56,-146.02 -7.85,-48.88 -36.01,-96.46 -80.66,-117.83 l -0.76,-0.35 c 2.18,-12.54 4.36,-25.09 6.53,-37.64 0.47,-2.7 0.89,-5.68 -0.56,-8 -1.65,-2.64 -5.07,-3.43 -8.13,-3.99 -14.98,-2.74 -29.95,-5.47 -44.92,-8.21 -7.43,-1.35 -15.16,-2.69 -22.42,-0.63 -15.88,4.52 -23.03,23.14 -24.26,39.62 -0.29,3.93 -0.38,7.92 -0.45,11.91 -90.05,27.61 -157.28,146.55 -130.73,236.41"
         style="fill:#a0675c;fill-opacity:1;fill-rule:nonzero;stroke:none"
         id="path96"
         inkscape:connector-curvature="0" /><path
         d="m 4952.16,3737.67 c 36.16,6.59 68.25,-27.64 102.38,-45.05 28.4,-14.49 60.15,-17.53 89.47,-29.35 29.33,-11.81 58.62,-37.52 60.31,-70.83 28.8,16.2 60.03,32.87 93.05,27.62 33.04,-5.27 64.79,-43.46 52.77,-76.19 -10.77,-29.31 -48.29,-37.36 -59.92,-66.24 -18.39,-45.69 37.58,-113.9 1.91,-144.97 -8.58,-7.47 -20.51,-9.59 -28.92,-17.27 -10.46,-9.54 -13.4,-25.42 -17.72,-39.6 -19.63,-64.28 -82.36,-107.88 -145.92,-101.45 -39.95,17.15 -72.57,54.21 -88.05,97.37 -18.66,52 8.86,71.27 12.01,120.76 3.42,54.08 -15.59,110.63 -50.9,151.4 -22.98,26.52 -55.35,48.98 -88.86,51.08 -13.63,0.85 -8.98,-10.33 -24.6,-0.33 -6.71,4.31 -16.21,21.06 -18.34,29.18 35.6,30.58 63.75,105.19 111.33,113.87"
         style="fill:#3b455a;fill-opacity:1;fill-rule:nonzero;stroke:none"
         id="path98"
         inkscape:connector-curvature="0" /><path
         d="m 4561.43,3654.95 c -18.57,-5.83 -38.95,-5.73 -56.56,-14.14 -26.44,-12.64 -23.9,-40.42 -30.71,-64.85 -7.53,-27.05 -18.58,-63.4 -35.56,-84.8 -12.24,-15.42 -29.78,-24.56 -44.9,-36.64 -15.13,-12.09 -28.82,-29.65 -27.82,-50.51 0.96,-19.77 14.84,-37.1 17.43,-56.78 3.33,-29.37 -1.27,-44.61 8.78,-74.42 5.2,-15.37 10.98,-31.65 22.98,-41.86 15.81,-13.46 37.68,-12.47 56.8,-8.64 19.1,3.84 38.79,9.82 57.94,4.07 41.55,-12.48 35.23,-54.3 47.3,-88.77 18.37,-52.46 80.84,-81.4 127.25,-61.02 39.35,17.29 60.91,64.33 57.62,109.96 -1.64,22.85 -11.45,43.88 -12.85,66.76 -1.36,22.06 10.09,53.05 -10.5,69.92 -5.02,4.11 -11.34,6.16 -15.88,10.88 -3.67,3.82 -5.81,9.03 -7.21,14.26 -4.85,18.11 -1.49,38.14 8.82,52.47 7.41,10.3 18.25,18 22.59,30.27 4.98,14.07 0.15,30.16 -1.26,45.47 -3.43,37.02 15.67,74.05 46.1,89.39 20.05,10.09 38.21,16.26 55.54,31.2 2.64,2.27 41.97,39.37 43.26,31.68 -2.26,13.4 -10.5,24.91 -18.81,35.45 -13.66,17.32 -28.75,34.15 -47.53,44.18 -60.72,32.43 -60.99,-47.56 -109.18,-38.61 -11.62,2.16 -20.65,12.45 -31.25,18.43 -20.01,11.29 -43.96,6.24 -63.74,-3.35 -19.77,-9.6 -37.72,-23.44 -58.65,-30"
         style="fill:#3b455a;fill-opacity:1;fill-rule:nonzero;stroke:none"
         id="path100"
         inkscape:connector-curvature="0" /><path
         d="m 7758.68,5090.5 v 609.04 H 6331.5 7758.68 v 207.78 l 45.7,-2.57 -45.7,-814.25 m -166.31,826.15 H 6343.69 l 3.92,69.86 1244.76,-69.86"
         style="fill:#f6f7f7;fill-opacity:1;fill-rule:nonzero;stroke:none"
         id="path102"
         inkscape:connector-curvature="0" /><path
         d="m 7754.84,5022.11 -1456.76,81.76 17.43,310.67 H 7758.68 V 5090.5 l -3.84,-68.39"
         style="fill:#dbdbdc;fill-opacity:1;fill-rule:nonzero;stroke:none"
         id="path104"
         inkscape:connector-curvature="0" /><path
         d="M 7758.68,5699.54 H 6331.5 l 12.19,217.11 h 1248.68 l 166.31,-9.33 v -207.78"
         style="fill:#394357;fill-opacity:1;fill-rule:nonzero;stroke:none"
         id="path106"
         inkscape:connector-curvature="0" /><path
         d="m 7758.68,5414.54 v 0 H 6315.51 l 3.3,58.74 H 7494.7 v 121.67 H 6325.63 l 5.87,104.59 h 1427.18 v -285"
         style="fill:#79afd4;fill-opacity:1;fill-rule:nonzero;stroke:none"
         id="path108"
         inkscape:connector-curvature="0" /><path
         d="M 7494.7,5473.28 H 6318.81 l 6.82,121.67 H 7494.7 v -121.67"
         style="fill:#ebebeb;fill-opacity:1;fill-rule:nonzero;stroke:none"
         id="path110"
         inkscape:connector-curvature="0" /><path
         d="m 8526.71,5041.33 -2161.76,121.32 70.87,1262.74 2161.76,-121.32 -70.87,-1262.74"
         style="fill:#587bc9;fill-opacity:1;fill-rule:nonzero;stroke:none"
         id="path112"
         inkscape:connector-curvature="0" /><path
         d="m 8330.75,5988.71 -1625.42,91.22 3.23,57.62 1625.42,-91.22 -3.23,-57.62"
         style="fill:#ffffff;fill-opacity:1;fill-rule:nonzero;stroke:none"
         id="path114"
         inkscape:connector-curvature="0" /><path
         d="m 8313.57,5682.62 -1625.42,91.22 3.24,57.63 1625.42,-91.22 -3.24,-57.63"
         style="fill:#ffffff;fill-opacity:1;fill-rule:nonzero;stroke:none"
         id="path116"
         inkscape:connector-curvature="0" /><path
         d="m 8296.4,5376.54 -1625.42,91.22 3.23,57.63 1625.42,-91.22 -3.23,-57.63"
         style="fill:#ffffff;fill-opacity:1;fill-rule:nonzero;stroke:none"
         id="path118"
         inkscape:connector-curvature="0" /><path
         d="m 7244.57,1530.94 7.25,-67.02 -126.78,-81.52 -74.27,59.77 59.77,74.27 126.78,81.51 7.25,-67.01"
         style="fill:#3b455a;fill-opacity:1;fill-rule:nonzero;stroke:none"
         id="path120"
         inkscape:connector-curvature="0" /><path
         d="m 6940.37,1547.21 7.25,-67.01 -126.78,-81.53 -74.27,59.78 59.77,74.26 126.79,81.52 7.24,-67.02"
         style="fill:#3b455a;fill-opacity:1;fill-rule:nonzero;stroke:none"
         id="path122"
         inkscape:connector-curvature="0" /><path
         d="m 7482.85,2827.01 -135.14,-600.31 -83.06,-706.84 -155.16,14.51 -63.04,1715.96 415.4,-7.54 21,-415.78"
         style="fill:#3b455a;fill-opacity:1;fill-rule:nonzero;stroke:none"
         id="path124"
         inkscape:connector-curvature="0" /><path
         d="m 6687.46,2863.72 -17.44,-582.73 115.87,-746.62 161.73,16.9 22.2,771.66 115.36,528.89 38.72,346.2 -345.88,40.79 -90.56,-375.09"
         style="fill:#3b455a;fill-opacity:1;fill-rule:nonzero;stroke:none"
         id="path126"
         inkscape:connector-curvature="0" /><path
         d="m 6961.07,4431.41 372.62,8.9 216.05,-401.8 -76.79,-376.34 -13.67,-450.38 -531.54,-7.26 -174.89,28.4 46.44,481.22 -26.62,642.81 188.4,74.45"
         style="fill:#9fa8ac;fill-opacity:1;fill-rule:nonzero;stroke:none"
         id="path128"
         inkscape:connector-curvature="0" /><path
         d="m 7369.62,3473.94 2.02,-62.86 -110.94,-40.38 -63.93,48.45 -0.04,73.16 61.73,3.44 1.93,16.1 20.22,12.99 89.01,-50.9"
         style="fill:#eac2a7;fill-opacity:1;fill-rule:nonzero;stroke:none"
         id="path130"
         inkscape:connector-curvature="0" /><path
         d="m 7346.05,4412.6 412.68,-474.75 20.16,-207.94 -407.05,-321.35 -73.03,105.69 263.25,281.07 -255.03,249.67 39.02,367.61"
         style="fill:#9fa8ac;fill-opacity:1;fill-rule:nonzero;stroke:none"
         id="path132"
         inkscape:connector-curvature="0" /><path
         d="m 6947.62,4187.95 -194.09,-388.01 -209.27,-41.59 -374.73,15.97 7.11,179.18 h 384.24 l 216.97,403.46 169.77,-169.01"
         style="fill:#9fa8ac;fill-opacity:1;fill-rule:nonzero;stroke:none"
         id="path134"
         inkscape:connector-curvature="0" /><path
         d="m 6984.4,4743.61 c 56.18,163.31 271.78,102.11 316.23,-43.31 28.99,-94.85 -44.27,-217.95 -142.55,-245.19 -0.43,-3.74 -0.77,-7.22 -0.78,-10.18 -0.06,-15.23 -1.94,-30.24 -4.19,-45.46 -0.84,-5.67 -86.87,10.86 -96.46,12.75 -3.35,0.66 -7.1,1.57 -8.91,4.39 -3.46,5.4 2.18,21.31 2.81,27.3 0.74,7.09 1.48,14.17 2.22,21.26 -48.47,23.66 -79.07,74.07 -87.61,125.38 -8.59,51.55 2.36,103.98 19.24,153.06"
         style="fill:#eac2a7;fill-opacity:1;fill-rule:nonzero;stroke:none"
         id="path136"
         inkscape:connector-curvature="0" /><path
         d="m 7223.47,4433.54 -115.6,-163.38 -54.34,4.45 -90.58,165.7 260.52,-6.77"
         style="fill:#ffffff;fill-opacity:1;fill-rule:nonzero;stroke:none"
         id="path138"
         inkscape:connector-curvature="0" /><path
         d="m 6945.63,4879.09 c -0.29,2.71 -0.56,5.42 -0.84,8.13 -0.88,8.46 -1.66,17.46 2.12,25.07 6.02,12.09 20.86,16.19 32.06,23.73 27.46,18.47 31.86,56.77 50.69,83.99 36.2,52.33 79.39,21.88 127.44,16.2 55.23,-6.53 94.83,12.29 143.42,-22.29 39.27,-27.96 87.83,-54.12 114.14,-96.59 45.77,-73.92 44.01,-174.54 -4.33,-246.81 -10.84,-16.21 -23.73,-30.97 -37.23,-45.05 -27.96,-29.12 -61.44,-65.12 -99.3,-75.36 -0.22,33.69 32.6,139.26 7.27,167.4 -25.25,28.03 -62.76,25.76 -95.13,39.06 -29.92,12.3 -53.68,47.25 -85.28,53.35 -35,6.75 -143.95,-37.85 -151.08,30.97 -1.32,12.73 -2.64,25.47 -3.95,38.2"
         style="fill:#3b455a;fill-opacity:1;fill-rule:nonzero;stroke:none"
         id="path140"
         inkscape:connector-curvature="0" /><path
         d="m 7047.24,3288.2 301.38,279.49 -850.7,270.43 -328.39,-282.14 877.71,-267.78"
         style="fill:#3b455a;fill-opacity:1;fill-rule:nonzero;stroke:none"
         id="path142"
         inkscape:connector-curvature="0" /><path
         d="m 7047.24,3288.2 -877.71,267.78 v 698.34 l 877.71,-267.77 V 3288.2"
         style="fill:#d7e8f4;fill-opacity:1;fill-rule:nonzero;stroke:none"
         id="path144"
         inkscape:connector-curvature="0" /><path
         d="m 7803.85,5000.03 -110.23,77.06 15.68,70.28 111.73,-38.52 53.92,-35.14 v -38.97 l -71.1,-34.71"
         style="fill:#eac2a7;fill-opacity:1;fill-rule:nonzero;stroke:none"
         id="path146"
         inkscape:connector-curvature="0" /><path
         d="m 8851.04,2028.03 c 11.38,12.52 24.66,19.35 39.65,17 14.42,-2.27 27.37,-12.03 33.31,-25.1 4.06,-8.9 4.91,-18.83 5.72,-28.54 4.15,-50.29 3.77,-169.66 -63.21,-186.85 -28.14,-7.22 -51.42,12.78 -58.93,38.06 -11.33,38.07 5.44,143.55 43.46,185.43"
         style="fill:#323643;fill-opacity:1;fill-rule:nonzero;stroke:none"
         id="path148"
         inkscape:connector-curvature="0" /><path
         d="m 8827.23,2786.52 3.5,-306.68 c -4.07,-136.21 17.2,-273.19 13.12,-409.42 -0.94,-31.32 -9.1,-64.37 -1.21,-95.41 7.72,-30.37 32.4,-35.74 57.73,-20.36 33.94,20.6 28.47,68.72 34.12,103.83 15.53,96.46 33.74,192.48 49.95,288.82 7.95,47.24 -8.43,113.43 -4.87,161.24 l 49.55,257.01 -201.89,20.97"
         style="fill:#eac2a7;fill-opacity:1;fill-rule:nonzero;stroke:none"
         id="path150"
         inkscape:connector-curvature="0" /><path
         d="m 9177.63,3282.04 -133.48,-592.9 -28.36,-559.91 -211.64,4.74 -57.55,1566.18 410.28,-7.45 20.75,-410.66"
         style="fill:#d4d6d8;fill-opacity:1;fill-rule:nonzero;stroke:none"
         id="path152"
         inkscape:connector-curvature="0" /><path
         d="m 8548.33,2039.17 c 11.87,11.87 25.39,17.92 40.24,14.68 14.26,-3.13 26.76,-13.65 32.12,-27.08 3.66,-9.15 4.09,-19.14 4.48,-28.91 1.99,-50.57 -3.49,-170.01 -70.98,-183.26 -28.36,-5.57 -50.71,15.82 -57.12,41.55 -9.66,38.78 11.56,143.36 51.26,183.02"
         style="fill:#323643;fill-opacity:1;fill-rule:nonzero;stroke:none"
         id="path154"
         inkscape:connector-curvature="0" /><path
         d="m 8659.88,2743.48 -17.96,-306.19 c -1.46,-85.08 -12.8,-169.51 -21.61,-254.03 -8.18,-78.49 4.55,-160.26 -36.47,-231.67 -12.87,-22.38 -38.88,-37.28 -57.04,-10.09 -14.02,20.97 -5.7,55.93 -8.38,79.72 -10.97,97.08 -24.63,193.84 -36.29,290.83 -5.71,47.55 13.78,112.91 12.47,160.83 l -37.37,259.04 202.65,11.56"
         style="fill:#eac2a7;fill-opacity:1;fill-rule:nonzero;stroke:none"
         id="path156"
         inkscape:connector-curvature="0" /><path
         d="m 8392.05,3318.3 -17.22,-575.55 90.32,-582.01 215.29,-6.44 -9.5,629.89 113.91,522.35 38.25,341.93 -341.61,40.29 -89.44,-370.46"
         style="fill:#d4d6d8;fill-opacity:1;fill-rule:nonzero;stroke:none"
         id="path158"
         inkscape:connector-curvature="0" /><path
         d="m 8662.29,4866.64 368.02,8.78 213.37,-396.84 -75.84,-371.7 -13.5,-444.81 -524.96,-7.16 -172.74,28.04 45.86,475.28 -24.01,579.95 183.8,128.46"
         style="fill:#40495f;fill-opacity:1;fill-rule:nonzero;stroke:none"
         id="path160"
         inkscape:connector-curvature="0" /><path
         d="m 9042.51,4848.06 298.75,-455.03 -44.89,-253.49 -462.7,-320.52 -87.07,76.13 309.34,391.02 -12,247.11 -1.43,314.78"
         style="fill:#40495f;fill-opacity:1;fill-rule:nonzero;stroke:none"
         id="path162"
         inkscape:connector-curvature="0" /><path
         d="m 8684.57,4609.72 -353.6,-127.5 -204.63,50.36 -353.61,463.96 123.15,53.63 371.39,-318.92 336.15,100.72 81.15,-222.25"
         style="fill:#40495f;fill-opacity:1;fill-rule:nonzero;stroke:none"
         id="path164"
         inkscape:connector-curvature="0" /><path
         d="m 8921.44,4868.75 -114.16,-161.37 -53.68,4.39 -89.46,163.65 257.3,-6.67"
         style="fill:#f7f7f7;fill-opacity:1;fill-rule:nonzero;stroke:none"
         id="path166"
         inkscape:connector-curvature="0" /><path
         d="m 8830.99,3875.8 1.99,-62.07 -109.56,-39.88 -63.15,47.84 -0.05,72.26 60.97,3.4 1.92,15.89 19.96,12.84 87.92,-50.28"
         style="fill:#eac2a7;fill-opacity:1;fill-rule:nonzero;stroke:none"
         id="path168"
         inkscape:connector-curvature="0" /><path
         d="m 8786.58,5192.67 c -23.87,21.06 -51.17,24.88 -81.61,25.11 -14.38,0.11 -19.2,-3.61 -26.61,-2.31 -3.34,0.59 -7.2,2.19 -12.69,5.6 -10.89,6.79 -20.61,24.54 -25.71,39.01 -28.23,-17.86 -48.77,-50.1 -54.42,-99.2 -6.16,-53.38 -6.07,-109.69 12.23,-163.1 18.29,-53.41 57.34,-103.62 107.99,-123.44 2.95,-1.16 5.88,-2.18 8.8,-3.12 21.7,-7.08 42.31,-8.55 61.43,-5.49 l 63.84,30.44 c 3.19,2.7 6.27,5.54 9.26,8.53 20.98,90.85 -1.76,234.41 -62.51,287.97"
         style="fill:#eac2a7;fill-opacity:1;fill-rule:nonzero;stroke:none"
         id="path170"
         inkscape:connector-curvature="0" /><path
         d="m 8785.25,5256.4 c 7.85,-3.95 15.57,-8.44 23.11,-13.42 -7.54,4.98 -15.26,9.47 -23.11,13.42 z m 432.01,-966.62 c -6.91,6.28 -13.94,12.57 -20.99,18.91 4.64,-11.91 9.26,-23.98 13.86,-36.22 4.59,-12.25 9.16,-24.66 13.69,-37.26 2.92,-8.12 5.75,-16.37 8.48,-24.75 -2.73,8.38 -5.56,16.63 -8.48,24.75 -4.53,12.6 -9.1,25.01 -13.69,37.26 -4.6,12.24 -9.22,24.31 -13.86,36.22 -50.99,45.82 -103.21,94.22 -117.22,160.19 -6.72,31.7 -3.71,63.22 3.03,94.78 10.83,50.71 31.31,101.53 36.65,153.32 9.16,88.7 1.93,216.23 -19.73,303.01 -23.15,92.78 -73.64,176.75 -134.21,249.87 -73.47,88.7 -210.05,188.01 -306.79,71.84 -1.12,-1.33 -2.19,-2.7 -3.23,-4.09 -10.51,5.26 -21.53,9.52 -32.87,12.64 -66.82,-56.29 -84.01,-146.89 -77.01,-230.16 7.02,-83.42 49.13,-177.94 25.36,-260.69 -2.26,-7.91 -5.22,-15.82 -5.16,-24.05 0.07,-8.23 4.01,-17.11 11.68,-20.1 4.67,-1.81 9.87,-1.2 14.82,-0.56 40.89,5.28 85.4,12.37 113.14,42.88 4.13,4.54 7.3,9.1 9.82,13.65 -2.91,0.95 -5.83,1.96 -8.79,3.12 -50.65,19.82 -89.7,70.03 -107.99,123.44 -18.3,53.41 -18.39,109.72 -12.23,163.1 5.65,49.1 26.19,81.34 54.42,99.2 5.1,-14.47 14.82,-32.22 25.71,-39.01 5.49,-3.41 9.35,-5.01 12.68,-5.6 7.42,-1.3 12.23,2.42 26.62,2.31 30.44,-0.23 57.74,-4.05 81.61,-25.11 60.75,-53.56 83.49,-197.12 62.51,-287.97 57.28,57.13 80.24,163.26 42.54,242.58 -2.15,4.5 -4.42,8.92 -6.83,13.23 2.41,-4.31 4.68,-8.73 6.83,-13.23 37.7,-79.32 14.74,-185.45 -42.54,-242.58 -0.37,-1.58 -0.74,-3.13 -1.13,-4.67 -2.6,-10.26 -5.74,-19.83 -9.51,-28.41 -1.55,-3.51 -3.19,-6.86 -4.92,-10.04 -18.68,-34.01 -47.53,-65.96 -46.81,-104.74 0.14,-7.21 1.35,-14.25 3.13,-21.2 3.27,-12.62 8.5,-24.91 13.18,-37.14 49.67,-130.08 -4.94,-276.92 -85.71,-386.83 -41.36,-56.29 -95.99,-105.09 -119.57,-170.85 -4.04,-11.29 -6.58,-23.35 -7.71,-35.63 -5.49,-59.25 22.42,-123.79 79.47,-133.45 13.44,-2.27 27.71,-1.38 40.06,-7.12 42.16,-19.6 23.94,-88.73 55.15,-123.19 20.15,-22.27 54.25,-23.05 84.28,-22.19 9.83,0.28 20.21,0.73 28.44,6.09 17.55,11.45 15.86,36.94 21.04,57.24 9.36,36.77 46.08,60.92 83.15,69.04 37.07,8.13 75.55,3.81 113.5,3.75 47.41,-0.08 95.89,6.95 137.7,29.31 16.42,8.77 31.65,20.21 44.63,33.66 -1.6,9.79 -3.27,19.51 -5.02,29.15 1.75,-9.64 3.42,-19.36 5.02,-29.15 20.08,20.82 34.71,46.48 39.55,74.87 12.9,75.69 -42.97,144.91 -99.75,196.58"
         style="fill:#3b455a;fill-opacity:1;fill-rule:nonzero;stroke:none"
         id="path172"
         inkscape:connector-curvature="0" /></g></g></svg>