<?xml version="1.0" encoding="UTF-8" standalone="no"?>
<!-- Created with Inkscape (http://www.inkscape.org/) -->

<svg
   xmlns:dc="http://purl.org/dc/elements/1.1/"
   xmlns:cc="http://creativecommons.org/ns#"
   xmlns:rdf="http://www.w3.org/1999/02/22-rdf-syntax-ns#"
   xmlns:svg="http://www.w3.org/2000/svg"
   xmlns="http://www.w3.org/2000/svg"
   xmlns:sodipodi="http://sodipodi.sourceforge.net/DTD/sodipodi-0.dtd"
   xmlns:inkscape="http://www.inkscape.org/namespaces/inkscape"
   version="1.1"
   id="svg2"
   xml:space="preserve"
   width="1496"
   height="1066.6667"
   viewBox="0 0 1496 1066.6667"
   sodipodi:docname="40832.svg"
   inkscape:version="0.92.5 (2060ec1f9f, 2020-04-08)"><metadata
     id="metadata8"><rdf:RDF><cc:Work
         rdf:about=""><dc:format>image/svg+xml</dc:format><dc:type
           rdf:resource="http://purl.org/dc/dcmitype/StillImage" /><dc:title></dc:title></cc:Work></rdf:RDF></metadata><defs
     id="defs6" /><sodipodi:namedview
     pagecolor="#ffffff"
     bordercolor="#666666"
     borderopacity="1"
     objecttolerance="10"
     gridtolerance="10"
     guidetolerance="10"
     inkscape:pageopacity="0"
     inkscape:pageshadow="2"
     inkscape:window-width="897"
     inkscape:window-height="480"
     id="namedview4"
     showgrid="false"
     inkscape:zoom="0.22124998"
     inkscape:cx="748"
     inkscape:cy="533.33337"
     inkscape:window-x="0"
     inkscape:window-y="27"
     inkscape:window-maximized="0"
     inkscape:current-layer="g10" /><g
     id="g10"
     inkscape:groupmode="layer"
     inkscape:label="ink_ext_XXXXXX"
     transform="matrix(1.3333333,0,0,-1.3333333,0,1066.6667)"><g
       id="g12"
       transform="scale(0.1)"><path
         d="M 11220,0 H 0 V 8000 H 11220 V 0"
         style="fill:#ffffff;fill-opacity:1;fill-rule:nonzero;stroke:none"
         id="path14"
         inkscape:connector-curvature="0" /><path
         d="m 8903.1,4847.22 c 2.46,0.15 4.93,0.1 7.4,-0.18 23.02,-2.71 31.19,-24.37 50.2,-32.29 8.48,-3.52 34.7,4.66 34.3,-10.56 -0.2,-5.62 0.77,-24.58 0.57,-43.67 5.53,-14.89 10.42,-30.04 17.33,-44.34 17.51,-36.17 97.12,-91.94 63.53,-135.72 -6.5,-8.47 -13.2,-17.12 -22.23,-22.81 -7.39,-4.63 -15.96,-7.03 -24.46,-8.96 -6.63,-1.5 -16.8,-5.48 -22.42,-1.97 -5.9,3.68 -11.63,20.25 -15.18,26.45 -10.17,17.71 -20.33,35.4 -30.51,53.11 -9.97,17.36 -23.34,36.88 -43.35,37.56 -4.37,0.14 -8.8,-0.68 -13.11,0.06 -4.88,0.83 -9.18,3.58 -13.26,6.38 -14.91,10.27 -29.37,21.99 -41.53,35.49 -21.73,24.15 -9.32,73.51 -4.36,101.65 1.23,7 2.73,14.22 6.88,19.99 6.75,9.39 18.84,12.96 30.02,15.92 6.62,1.75 13.38,3.51 20.18,3.89"
         style="fill:#b99a6f;fill-opacity:1;fill-rule:nonzero;stroke:none"
         id="path16"
         inkscape:connector-curvature="0" /><path
         d="m 9293.72,4229.23 c -24.61,7.26 -49.56,14.68 -71.37,28.2 -17.39,10.78 -32.25,25.13 -46.6,39.71 -88.98,90.44 -163.77,194.81 -220.78,308.16 42.7,41.71 93.72,74.85 149.18,96.89 66.85,-79.98 140.06,-154.62 218.74,-222.99 16.09,-13.99 32.65,-27.86 51.88,-37.06 27.71,-13.25 59.11,-15.94 89.72,-18.44 118.72,-9.66 237.44,-19.33 356.17,-28.99 71.63,-5.83 145.81,-12.41 208.44,-47.63 173.7,-97.66 76.3,-330.1 -107.93,-305.24 -206.86,27.93 -426.69,128.08 -627.45,187.39"
         style="fill:#dae8ef;fill-opacity:1;fill-rule:nonzero;stroke:none"
         id="path18"
         inkscape:connector-curvature="0" /><path
         d="m 9786.97,661.813 c -16.93,-29.692 -50.51,-50.024 -82.99,-64.094 -27.1,-11.739 -55.99,-21.86 -77.09,-42.547 -21.09,-20.672 -31.56,-56.043 -14.34,-80.051 15.76,-21.98 46.48,-25.531 73.51,-27.129 69.01,-4.113 144.98,-8.062 208.68,23.738 46.83,23.372 131.46,55.11 126.06,121.672 -1.5,17.789 -10.3,33.977 -17.8,50.2 -15.8,34.429 -26.1,71.429 -30.3,109.089 0,-0.621 -123.28,2.981 -134.41,1.93 -47.2,-4.449 -32.84,-26.351 -41.99,-68.66 -1.88,-8.672 -5.08,-16.699 -9.33,-24.148"
         style="fill:#404042;fill-opacity:1;fill-rule:nonzero;stroke:none"
         id="path20"
         inkscape:connector-curvature="0" /><path
         d="m 10489.3,632.172 c -11.3,-32.25 -40.7,-58.25 -70.2,-77.902 -24.5,-16.399 -51.2,-31.54 -68.2,-55.661 -17.1,-24.121 -21,-60.789 0.2,-81.328 19.4,-18.812 50.3,-16.801 77.2,-13.539 68.6,8.309 144.1,18.008 201,60.688 41.9,31.379 119.5,77.75 102.3,142.261 -4.6,17.25 -16.2,31.598 -26.5,46.231 -21.7,31.027 -38.4,65.578 -49.3,101.887 0.1,-0.61 -121.8,-19.129 -132.6,-22.149 -45.7,-12.82 -27.6,-31.801 -29,-75.058 -0.3,-8.86 -2,-17.352 -4.9,-25.43"
         style="fill:#404042;fill-opacity:1;fill-rule:nonzero;stroke:none"
         id="path22"
         inkscape:connector-curvature="0" /><path
         d="m 10183.4,2679.69 -47.6,-425.45 -67.4,-785.09 -66.7,-777.72 -213.26,10.898 -86.75,848.762 -25.51,719.97 81.41,459.19 425.81,-50.56"
         style="fill:#9fb5bc;fill-opacity:1;fill-rule:nonzero;stroke:none"
         id="path24"
         inkscape:connector-curvature="0" /><path
         d="m 10607.2,2674.63 69.2,-261.07 -76.7,-743.97 90.1,-989.809 -202.5,-16.543 -262.8,946.852 -207.3,1035.95 590,28.59"
         style="fill:#9fb5bc;fill-opacity:1;fill-rule:nonzero;stroke:none"
         id="path26"
         inkscape:connector-curvature="0" /><path
         d="m 9557.35,2495.67 c -9.06,-40.45 -18.92,-80.72 -29.59,-120.79 -2.27,-8.54 -4.52,-17.94 -0.79,-25.95 3.16,-6.78 9.93,-11.03 16.47,-14.67 81.5,-45.4 183.02,-53.11 270.46,-20.55 43.08,16.04 82.52,41.16 126.31,55.18 73.49,23.51 151.39,14.35 226.99,12.36 75,-1.98 139.7,19.01 211.4,27.05 175.9,19.7 222.8,29.88 392,-17.9 -9.3,317.48 48.4,563.55 -8.8,860.83 -56.3,293.43 -112.7,586.86 -169.1,880.3 -9.5,49.5 -19.4,100.04 -41.2,143.22 -98.7,195.27 -318.4,226.59 -510.8,164.25 -97.88,-31.72 -173.22,-145.43 -219.19,-233.43 -58.75,-112.49 -89.22,-238.08 -110.1,-362.51 -65.36,-389.3 -56.08,-788.2 -120.92,-1177.59 -9.48,-56.89 -20.53,-113.52 -33.14,-169.8"
         style="fill:#dae8ef;fill-opacity:1;fill-rule:nonzero;stroke:none"
         id="path28"
         inkscape:connector-curvature="0" /><path
         d="m 9950.1,4874.87 c -1.45,-4.07 -2.51,-8.22 -3.16,-12.45 -3.33,-22.14 5.9,-44.71 2.74,-66.88 -5,-35.13 -39.89,-62.17 -39.32,-97.67 0.48,-29.02 24.68,-52.2 31.59,-80.39 7.56,-30.8 -6.89,-63.97 1.92,-94.12 7.64,-26.19 31.54,-60.55 51.45,-78.98 -6.17,5.71 -50.41,-4.96 -63.31,-0.04 -19.77,7.55 -23.07,14.02 -31.8,31.54 -8.66,17.4 -7.95,36.26 -19.63,53.56 -14.32,21.23 -38.09,34.35 -49.88,57.63 -16.09,31.78 -4.8,70.55 -12.7,105.28 -11.96,52.57 -67,93.96 -59.75,147.37 4.25,31.34 29.42,55.55 40.61,85.13 8.48,22.47 8.58,47.1 12.98,70.71 4.39,23.61 14.9,48.37 36.3,59.26 11.89,6.05 25.71,7.04 38.16,11.84 21.52,8.29 37.19,27.12 57.31,38.38 28.79,16.1 88.79,-4.89 111.59,-27.6 22.6,-22.54 17.7,-46.18 3.7,-72.42 -23.2,-43.69 -91.83,-82.22 -108.8,-130.15"
         style="fill:#3a322e;fill-opacity:1;fill-rule:nonzero;stroke:none"
         id="path30"
         inkscape:connector-curvature="0" /><path
         d="m 10240,4404.1 c -1.2,-3.93 -3,-7.8 -5.7,-11.67 -10.6,-15.24 -27.3,-25.86 -44.7,-31.74 -22.9,-7.75 -47.6,-8.29 -71.8,-8.17 -32.7,0.14 -35,18.84 -44.9,46.67 -5.4,15.2 -9.9,30.7 -14.1,46.3 -2.2,8.54 -4.6,40.21 -11.3,45.26 -4.5,3.43 -19.5,-0.8 -26.8,1.44 -11.7,3.57 -22.44,12.12 -30.64,20.84 -13.24,14.07 -22.33,31.45 -31.24,48.59 -15.5,29.81 -31.01,59.63 -46.52,89.45 -15.84,30.46 -31.78,61.19 -41.19,94.21 -14.18,49.78 -19.28,122.82 12.07,166.97 28.6,40.28 77.3,61.58 122.82,76.21 60.4,19.39 126.5,19.98 186,-2.9 24,-9.24 47.7,-22.62 64.8,-43.87 26.4,-32.77 33.3,-78.51 39.1,-121.4 5.4,-39.59 10.7,-79.18 16.1,-118.77 6.1,-45.54 10.1,-98.58 -19.1,-129.33 -15.6,-16.33 -38.5,-23.47 -50.8,-42.98 -15.3,-24.45 -8.3,-55.53 -4.2,-82.14 2.4,-15.21 6.2,-29.31 2.1,-42.97"
         style="fill:#b99a6f;fill-opacity:1;fill-rule:nonzero;stroke:none"
         id="path32"
         inkscape:connector-curvature="0" /><path
         d="m 10334.8,5108.22 c 20.9,-10.09 45.5,-15.62 65.2,-28.28 38.5,-24.69 53.9,-72.75 63.5,-117.48 8.5,-39.83 32.6,-72.14 36,-114.66 2.3,-28.55 -4.4,-59.1 -24.1,-79.88 -24.5,-25.88 -68.5,-37.54 -75.1,-72.61 -7.1,-38.09 38,-75.99 21.4,-111.01 -9.2,-19.32 -32.9,-26.3 -48.4,-41.02 -17.3,-16.43 -23.1,-41.1 -31.4,-63.48 -8.3,-22.37 -22.6,-45.91 -45.9,-50.76 -7.6,35.49 -13.9,63.55 -4.7,98.99 5.3,20.65 24.9,60.56 1,77.41 -15.8,14.74 -46.7,14.75 -51.5,35.88 -2.2,9.91 3.2,19.7 7.2,29.07 15.2,36.25 9.4,79.67 -11.7,112.87 -21.1,33.19 -56.1,56.33 -94.1,66.72 -44.4,12.17 -39.7,23.35 -58.8,60.19 -17.6,33.92 -39.6,38.56 -74.4,45.64 -31.2,6.37 -41.89,11.95 -57.66,37.15 -11.55,18.43 -25.64,40.47 -18.38,64.78 5.76,19.33 19.69,34.97 33.22,49.92 28.26,31.23 60.42,64.52 102.22,69.22 23.3,2.61 46.8,-4.16 70,-1.19 15.5,1.97 30.1,8.19 45.4,11.56 25.9,5.73 55,2.91 79.1,-8.72 24.2,-11.74 26.7,-28.27 42.7,-48.35 7.8,-9.83 18,-16.55 29.2,-21.96"
         style="fill:#3a322e;fill-opacity:1;fill-rule:nonzero;stroke:none"
         id="path34"
         inkscape:connector-curvature="0" /><path
         d="m 10215.1,5237.66 c -8.7,24.11 -12.1,56.96 10.1,69.76 12.1,7.01 27.6,4.69 40.6,9.95 27.7,11.21 31.1,47.91 41.5,75.93 1.5,4.19 3.5,8.51 7.2,11.05 5.3,3.64 12.3,2.58 18.7,2.98 29.3,1.83 45.8,34.16 70.9,49.44 31,18.89 76.9,5.82 93.4,-26.6 6.7,-13.33 8.8,-28.6 15.3,-42.04 26.4,-54.45 115,-63.24 128.2,-122.3 8.9,-39.9 -23.3,-85.71 -1.1,-120.05 14.2,-21.96 47.8,-32.48 49,-58.6 0.8,-16.81 -14.5,-31.21 -31.1,-34.05 -16.6,-2.84 -33.5,3.41 -48,11.97 -22.9,13.6 -42,32.98 -64.2,47.77 -22.2,14.77 -50.1,24.94 -75.6,16.84 -24.6,-7.84 -43.8,-31.72 -69.6,-32.18 -20.7,-0.36 -38.9,14.76 -59.6,16.14 -19.3,1.29 -37.1,-9.51 -55.9,-14.19 -18.8,-4.67 -43.9,0.88 -48,19.8 -0.9,4.58 -0.5,9.59 -2.8,13.7 -6.3,11.51 -27.1,6.91 -33.4,18.46 7.1,17.13 22.1,14.25 25.5,35.53 2.6,16.47 -5.7,35.56 -11.1,50.69"
         style="fill:#3a322e;fill-opacity:1;fill-rule:nonzero;stroke:none"
         id="path36"
         inkscape:connector-curvature="0" /><path
         d="m 2400.12,5393.27 c 0,916.13 742.67,1658.81 1658.82,1658.81 916.13,0 1658.8,-742.68 1658.8,-1658.81 0,-916.14 -742.67,-1658.82 -1658.8,-1658.82 -916.15,0 -1658.82,742.68 -1658.82,1658.82"
         style="fill:#417196;fill-opacity:1;fill-rule:nonzero;stroke:none"
         id="path38"
         inkscape:connector-curvature="0" /><path
         d="m 9856.07,6590.7 c 0,-510.77 -414.05,-924.82 -924.81,-924.82 -510.76,0 -924.81,414.05 -924.81,924.82 0,510.76 414.05,924.82 924.81,924.82 510.76,0 924.81,-414.06 924.81,-924.82"
         style="fill:#417196;fill-opacity:1;fill-rule:nonzero;stroke:none"
         id="path40"
         inkscape:connector-curvature="0" /><path
         d="m 7406.19,6032.87 c 0,-27.54 -22.32,-49.87 -49.87,-49.87 -27.54,0 -49.87,22.33 -49.87,49.87 0,27.55 22.33,49.87 49.87,49.87 27.55,0 49.87,-22.32 49.87,-49.87"
         style="fill:#868788;fill-opacity:1;fill-rule:nonzero;stroke:none"
         id="path42"
         inkscape:connector-curvature="0" /><path
         d="m 7680.14,6130.72 c 0,-27.54 -22.33,-49.87 -49.87,-49.87 -27.55,0 -49.87,22.33 -49.87,49.87 0,27.55 22.32,49.87 49.87,49.87 27.54,0 49.87,-22.32 49.87,-49.87"
         style="fill:#868788;fill-opacity:1;fill-rule:nonzero;stroke:none"
         id="path44"
         inkscape:connector-curvature="0" /><path
         d="m 7954.09,6228.57 c 0,-27.54 -22.33,-49.87 -49.87,-49.87 -27.55,0 -49.87,22.33 -49.87,49.87 0,27.55 22.32,49.87 49.87,49.87 27.54,0 49.87,-22.32 49.87,-49.87"
         style="fill:#868788;fill-opacity:1;fill-rule:nonzero;stroke:none"
         id="path46"
         inkscape:connector-curvature="0" /><path
         d="m 6541.41,7165.12 c 0,-186 -150.79,-336.79 -336.79,-336.79 -186.01,0 -336.79,150.79 -336.79,336.79 0,186 150.78,336.78 336.79,336.78 186,0 336.79,-150.78 336.79,-336.78"
         style="fill:#b1cfdf;fill-opacity:1;fill-rule:nonzero;stroke:none"
         id="path48"
         inkscape:connector-curvature="0" /><path
         d="m 4339.43,4215.17 c 129.88,138.45 235.2,296.36 312.58,466.95 93.74,-36.93 184.2,-82.79 270.33,-137.23 -157.02,-159.79 -357.89,-276.13 -582.91,-329.72 z m -1143.8,329.6 c 86.14,54.44 176.59,100.33 270.37,137.26 77.39,-170.57 182.7,-328.46 312.55,-466.89 -225.01,53.56 -425.88,169.89 -582.92,329.63 z m 582.92,2026.61 C 3648.7,6432.96 3543.39,6275.07 3466,6104.51 c -93.78,36.92 -184.23,82.82 -270.37,137.25 157.04,159.74 357.91,276.08 582.92,329.62 z m 1143.79,-329.74 c -86.24,-54.51 -176.81,-100.41 -270.68,-137.37 -77.39,170.6 -182.47,328.72 -312.14,467.07 224.99,-53.6 425.81,-169.95 582.82,-329.7 z m -117.37,-796.87 c -5.87,194.7 -44.78,385.45 -113.46,564.5 104.57,41.33 205.19,93.3 300.78,155.1 163.25,-197.25 265.09,-446.92 276.57,-719.6 z m 0.01,-103.01 h 463.88 c -11.48,-272.67 -113.32,-522.36 -276.57,-719.6 -95.55,61.78 -196.13,113.72 -300.65,155.05 68.57,178.86 107.5,369.5 113.34,564.55 z m -694.54,-445.57 v 445.57 h 591.44 c -5.82,-183.08 -42.61,-362 -107.23,-529.83 -155.42,50.83 -318.11,79.37 -484.21,84.26 z m -694.37,445.57 h 591.35 V 4896.2 c -165.98,-4.89 -328.66,-33.46 -484.11,-84.28 -64.61,167.83 -101.41,346.75 -107.24,529.84 z m -103.09,0 c 5.84,-195.09 44.78,-385.77 113.38,-564.65 -104.56,-41.33 -205.19,-93.21 -300.75,-154.99 -163.27,197.25 -265.13,446.95 -276.61,719.64 z m 0,103.01 H 2849 c 11.48,272.69 113.34,522.39 276.61,719.63 95.55,-61.78 196.19,-113.65 300.75,-154.98 -68.6,-178.89 -107.54,-369.57 -113.38,-564.65 z m 694.44,445.57 v -445.57 h -591.35 c 5.83,183.08 42.63,362 107.24,529.84 155.45,-50.83 318.13,-79.4 484.11,-84.27 z m 103.02,0 c 166.04,4.88 328.67,33.41 484.04,84.2 64.72,-168.01 101.55,-347.01 107.4,-529.77 h -591.44 z m 443.75,179.38 c -142.61,-45.75 -291.64,-71.61 -443.75,-76.36 v 609.83 c 21.18,-0.89 42.24,-2.29 63.12,-4.27 l -4.18,-4.64 c 164.04,-148.34 294.12,-327.47 384.81,-524.56 z m -599.34,530 c 17.44,1.5 34.94,2.73 52.57,3.47 v -609.84 c -152.1,4.76 -301.2,30.68 -443.89,76.5 91.77,199.42 224.15,380.25 391.32,529.87 z M 3563.53,4716.68 c 142.69,45.81 291.79,71.74 443.89,76.5 v -609.84 c -17.63,0.74 -35.14,1.98 -52.57,3.46 -167.17,149.63 -299.55,330.45 -391.32,529.88 z m 599.6,-529.88 c -17.49,-1.48 -35.01,-2.72 -52.69,-3.46 v 609.83 c 152.21,-4.75 301.33,-30.64 444.02,-76.45 -91.78,-199.45 -224.17,-380.27 -391.33,-529.92 z m -104.19,2520.72 c -724.69,0 -1314.26,-589.57 -1314.26,-1314.25 0,-724.68 589.57,-1314.26 1314.26,-1314.26 724.67,0 1314.24,589.58 1314.24,1314.26 0,724.68 -589.57,1314.25 -1314.24,1314.25"
         style="fill:#ffffff;fill-opacity:1;fill-rule:nonzero;stroke:none"
         id="path50"
         inkscape:connector-curvature="0" /><path
         d="m 5785.6,6044.39 c -19.45,0 -37.91,11.5 -45.86,30.57 -279.63,670.6 -929.75,1106.31 -1656.26,1109.99 -27.44,0.14 -49.55,22.49 -49.42,49.92 0.14,27.34 22.36,49.42 49.66,49.42 h 0.26 c 766.51,-3.9 1452.42,-463.58 1747.44,-1171.11 10.55,-25.31 -1.41,-54.39 -26.73,-64.95 -6.24,-2.61 -12.73,-3.84 -19.09,-3.84"
         style="fill:#69a8d9;fill-opacity:1;fill-rule:nonzero;stroke:none"
         id="path52"
         inkscape:connector-curvature="0" /><path
         d="m 4064.91,3478.47 h -0.26 c -508.28,2.58 -985.14,202.95 -1342.73,564.18 -357.58,361.24 -553.09,840.11 -550.51,1348.39 2.16,425.73 141.65,827.57 403.38,1162.05 16.92,21.61 48.14,25.4 69.72,8.51 21.6,-16.91 25.41,-48.12 8.51,-69.72 -248.04,-316.99 -380.23,-697.83 -382.28,-1101.35 -2.45,-481.74 182.85,-935.61 521.78,-1277.99 338.92,-342.39 790.88,-532.29 1272.64,-534.73 27.43,-0.14 49.55,-22.49 49.41,-49.92 -0.14,-27.35 -22.35,-49.42 -49.66,-49.42"
         style="fill:#69a8d9;fill-opacity:1;fill-rule:nonzero;stroke:none"
         id="path54"
         inkscape:connector-curvature="0" /><path
         d="m 5378.1,4014.62 c -12.8,0 -25.59,4.91 -35.3,14.72 -19.3,19.5 -19.14,50.94 0.35,70.24 342.39,338.92 532.29,790.89 534.73,1272.63 0.14,27.35 22.35,49.42 49.66,49.42 h 0.26 c 27.43,-0.14 49.55,-22.49 49.42,-49.92 -2.58,-508.28 -202.95,-985.14 -564.18,-1342.72 -9.68,-9.59 -22.32,-14.37 -34.94,-14.37"
         style="fill:#69a8d9;fill-opacity:1;fill-rule:nonzero;stroke:none"
         id="path56"
         inkscape:connector-curvature="0" /><path
         d="m 4271.2,3286.63 c -27.93,0 -51.82,21.23 -54.58,49.61 -2.93,30.18 19.16,57.02 49.35,59.95 799.48,77.56 1471.14,622.93 1711.13,1389.39 9.06,28.94 39.92,45.05 68.81,36 28.93,-9.06 45.05,-39.87 35.99,-68.81 -253.21,-808.66 -961.84,-1384.05 -1805.33,-1465.88 -1.8,-0.17 -3.59,-0.26 -5.37,-0.26"
         style="fill:#b1cfdf;fill-opacity:1;fill-rule:nonzero;stroke:none"
         id="path58"
         inkscape:connector-curvature="0" /><path
         d="m 2119.15,5938.66 c -5.44,0 -10.97,0.81 -16.43,2.52 -28.93,9.06 -45.04,39.87 -35.99,68.81 167.91,536.24 534.59,975.01 1032.5,1235.46 497.9,260.44 1067.45,311.41 1603.69,143.51 449.16,-140.63 828.43,-418.61 1096.8,-803.87 17.33,-24.89 11.22,-59.12 -13.67,-76.44 -24.87,-17.33 -59.12,-11.23 -76.43,13.66 -254.34,365.11 -613.8,628.56 -1039.51,761.85 -508.27,159.19 -1048.06,110.84 -1519.98,-136.02 -471.92,-246.85 -819.46,-662.71 -978.6,-1170.96 -7.35,-23.48 -29.02,-38.52 -52.38,-38.52"
         style="fill:#b1cfdf;fill-opacity:1;fill-rule:nonzero;stroke:none"
         id="path60"
         inkscape:connector-curvature="0" /><path
         d="m 3462.13,3371.27 c -5.44,0 -10.97,0.81 -16.43,2.52 -536.24,167.91 -975,534.59 -1235.46,1032.51 -14.05,26.86 -3.67,60.05 23.21,74.1 26.86,14.07 60.04,3.68 74.1,-23.21 246.86,-471.92 662.72,-819.46 1170.97,-978.6 28.93,-9.06 45.04,-39.87 35.99,-68.81 -7.35,-23.47 -29.02,-38.51 -52.38,-38.51"
         style="fill:#b1cfdf;fill-opacity:1;fill-rule:nonzero;stroke:none"
         id="path62"
         inkscape:connector-curvature="0" /><path
         d="m 1897.58,4415.72 48.81,65.82 -8.25,73.06 13.51,9.99 11.83,-17.24 c 1.97,34.05 34.9,68.89 52.21,96.7 27.82,44.68 34.95,32.77 69.67,18.34 18.72,-7.78 37.05,-16.51 54.88,-26.15 -17.12,-42.02 -34.94,-82.17 -48.83,-125.44 l -57.37,-54.31 -63.23,-93.15 -73.23,52.38"
         style="fill:#eacdb0;fill-opacity:1;fill-rule:nonzero;stroke:none"
         id="path64"
         inkscape:connector-curvature="0" /><path
         d="m 1925.34,4477.27 -270.29,-383.01 -329.03,77.74 -175.81,-226.02 542.14,-258.12 372.67,729.02 -139.68,60.39"
         style="fill:#6f7f8c;fill-opacity:1;fill-rule:nonzero;stroke:none"
         id="path66"
         inkscape:connector-curvature="0" /><path
         d="m 1214,4314.07 c -36.49,-12.56 -128.65,-25.84 -127.38,-29.71 -12.34,37.53 -22.08,76.08 -29.09,115.16 -38.32,0.96 -84.112,6.81 -103.026,45.54 -5.949,12.2 -8.195,26.12 -10.356,39.74 -8.914,56.31 -17.832,112.62 -26.746,168.94 -3.086,19.47 -6.164,39.56 -2.48,58.63 6.457,33.47 32.195,56.76 58.445,72.96 97.333,60.08 220.753,16.65 326.803,10.07 8.82,-0.55 18.02,-1.21 25.85,-6.18 13.6,-8.64 19.16,-27.42 22.94,-44.51 19.65,-88.58 42.93,-220.4 -33.59,-279.93 -16.71,-13 -36.28,-20.85 -52.8,-34.21 -39.8,-32.18 -9.15,-75.83 -34.66,-109.29 -1.77,-2.33 -6.78,-4.75 -13.91,-7.21"
         style="fill:#eacdb0;fill-opacity:1;fill-rule:nonzero;stroke:none"
         id="path68"
         inkscape:connector-curvature="0" /><path
         d="m 1457.59,5003.93 c 2.8,15.97 6.3,31.67 10.95,46.92 10.06,33.01 25.57,63.91 31.15,98.44 5.58,34.54 -1.67,75.76 -27.83,95.74 -16.89,12.89 -38.16,14.49 -58.13,13.81 -65.78,-2.26 -130.32,-25.1 -184.74,-65.39 -51.82,-38.35 -94.16,-85.46 -159.54,-82.4 -61.43,2.88 -97.47,-21.35 -146.591,-65.94 -53.152,-48.25 -133.339,-85.17 -177.41,-141.61 -18.398,-23.56 -29.492,-53.71 -35.742,-84.75 -21.66,-107.55 16.856,-230.02 94.473,-300.41 17.422,-15.79 36.465,-29.05 55.925,-41.22 40.286,-25.2 88.918,-56.75 132.833,-55.15 -12.04,41.32 -85.309,158.24 -68.692,202.1 26.367,69.61 130.064,87.95 187.884,95.1 63.07,7.8 130.4,-20.33 191.67,-8.64 44.09,8.41 89.89,52.16 117.51,90.48 34.06,47.3 26.03,144.66 36.28,202.92"
         style="fill:#514943;fill-opacity:1;fill-rule:nonzero;stroke:none"
         id="path70"
         inkscape:connector-curvature="0" /><path
         d="m 715.559,552.07 -9.856,-75.629 153.406,-93.859 91.477,66.5 -71.777,84.738 -153.411,93.86 -9.839,-75.61"
         style="fill:#363636;fill-opacity:1;fill-rule:nonzero;stroke:none"
         id="path72"
         inkscape:connector-curvature="0" /><path
         d="M 756.387,2863.45 726.477,2633.8 927.41,1601.64 710.188,577.391 868.191,529.289 1406.83,1742.22 l 35.75,373.06 -53.92,775 -632.273,-26.83"
         style="fill:#495860;fill-opacity:1;fill-rule:nonzero;stroke:none"
         id="path74"
         inkscape:connector-curvature="0" /><path
         d="m 1766.18,2775.04 13.1,-972.22 -213.46,-1253.531 h -164.13 l -103.66,1156.651 -224.61,1156.65 692.76,-87.55"
         style="fill:#495860;fill-opacity:1;fill-rule:nonzero;stroke:none"
         id="path76"
         inkscape:connector-curvature="0" /><path
         d="m 1402.64,566.059 v -76.161 l 177.49,-76.168 88.75,76.168 -88.75,76.161 h -177.49"
         style="fill:#363636;fill-opacity:1;fill-rule:nonzero;stroke:none"
         id="path78"
         inkscape:connector-curvature="0" /><path
         d="m 669.348,2682.85 c 6.113,-84.56 19.937,-168.04 48.711,-247.58 232.593,97.9 484.611,149.42 736.961,150.64 77.57,0.38 155.91,-4.08 231.58,-22.11 36.35,-8.67 73.47,-31.94 108.96,-38.21 34.91,-6.17 77.76,19.94 110.8,32.38 17.8,6.7 -56.57,686.8 -92.08,770.77 -83.47,197.39 -171.51,392.21 -259.73,586.9 -37.42,82.6 -70.32,197.11 -128.86,260.21 -99.2,106.91 -263.05,219.11 -393.7,95.95 -36.228,-34.15 -61.861,-77.85 -85.26,-121.8 -206.875,-388.5 -274.32,-837.28 -281.242,-1277.37 -0.984,-63.07 -0.715,-126.72 3.86,-189.78"
         style="fill:#6f7f8c;fill-opacity:1;fill-rule:nonzero;stroke:none"
         id="path80"
         inkscape:connector-curvature="0" /><path
         d="m 1354.6,4163.11 c 0,0 215.59,-301.8 323.37,-560.5 55.08,-132.18 123.95,-560.5 150.91,-619.78 26.94,-59.29 0,-194.02 0,-194.02 l -54.4,-22.73 c 0,0 -91.12,545.5 -139.63,696.41 -48.5,150.9 -123.95,264.08 -134.73,388.03 -10.78,123.96 -177.85,312.59 -177.85,312.59 h 32.33"
         style="fill:#ffffff;fill-opacity:1;fill-rule:nonzero;stroke:none"
         id="path82"
         inkscape:connector-curvature="0" /><path
         d="m 7237.44,5726.5 c 0,-366.08 -296.77,-662.85 -662.85,-662.85 -366.08,0 -662.86,296.77 -662.86,662.85 0,366.09 296.78,662.86 662.86,662.86 366.08,0 662.85,-296.77 662.85,-662.86"
         style="fill:#6699c4;fill-opacity:1;fill-rule:nonzero;stroke:none"
         id="path84"
         inkscape:connector-curvature="0" /><path
         d="m 1855.05,6280.27 c -19.07,-18.26 -49.33,-17.61 -67.59,1.46 -18.26,19.06 -17.61,49.32 1.47,67.58 19.06,18.26 49.31,17.6 67.57,-1.46 18.27,-19.06 17.61,-49.33 -1.45,-67.58"
         style="fill:#868788;fill-opacity:1;fill-rule:nonzero;stroke:none"
         id="path86"
         inkscape:connector-curvature="0" /><path
         d="m 1623.42,6389.32 c -19.06,-18.26 -49.33,-17.6 -67.58,1.46 -18.26,19.06 -17.61,49.32 1.45,67.58 19.07,18.26 49.33,17.6 67.58,-1.46 18.26,-19.06 17.61,-49.32 -1.45,-67.58"
         style="fill:#868788;fill-opacity:1;fill-rule:nonzero;stroke:none"
         id="path88"
         inkscape:connector-curvature="0" /><path
         d="m 2104.38,6155.52 c -19.06,-18.27 -49.31,-17.61 -67.57,1.45 -18.27,19.06 -17.61,49.33 1.45,67.59 19.07,18.25 49.33,17.6 67.59,-1.47 18.26,-19.06 17.61,-49.31 -1.47,-67.57"
         style="fill:#868788;fill-opacity:1;fill-rule:nonzero;stroke:none"
         id="path90"
         inkscape:connector-curvature="0" /><path
         d="m 6319.41,6661.74 c -26.3,2.22 -45.83,25.34 -43.61,51.65 2.22,26.3 25.34,45.83 51.64,43.61 26.31,-2.22 45.84,-25.34 43.61,-51.65 -2.21,-26.3 -25.33,-45.83 -51.64,-43.61"
         style="fill:#868788;fill-opacity:1;fill-rule:nonzero;stroke:none"
         id="path92"
         inkscape:connector-curvature="0" /><path
         d="m 6384.08,6432.58 c -26.31,2.22 -45.84,25.34 -43.61,51.65 2.22,26.3 25.34,45.83 51.64,43.61 26.31,-2.22 45.83,-25.34 43.61,-51.64 -2.21,-26.31 -25.34,-45.84 -51.64,-43.62"
         style="fill:#868788;fill-opacity:1;fill-rule:nonzero;stroke:none"
         id="path94"
         inkscape:connector-curvature="0" /><path
         d="m 1544.42,6978.88 c 83.15,-299.48 -92.22,-609.66 -391.71,-692.82 -299.48,-83.14 -609.663,92.24 -692.808,391.72 -83.156,299.48 92.227,609.67 391.707,692.81 299.481,83.15 609.671,-92.22 692.811,-391.71"
         style="fill:#6699c4;fill-opacity:1;fill-rule:nonzero;stroke:none"
         id="path96"
         inkscape:connector-curvature="0" /><path
         d="m 7300.64,762.719 h -593.26 v 459.301 h 593.26 V 762.719"
         style="fill:#2e4661;fill-opacity:1;fill-rule:nonzero;stroke:none"
         id="path98"
         inkscape:connector-curvature="0" /><path
         d="M 7917.48,497.5 H 6090.56 v 279.41 c 0,36.57 29.65,66.219 66.22,66.219 h 1694.47 c 36.58,0 66.23,-29.649 66.23,-66.219 V 497.5"
         style="fill:#2e4661;fill-opacity:1;fill-rule:nonzero;stroke:none"
         id="path100"
         inkscape:connector-curvature="0" /><path
         d="M 9587.56,1090.88 H 4420.48 V 4669.56 H 9587.56 V 1090.88"
         style="fill:#2e4661;fill-opacity:1;fill-rule:nonzero;stroke:none"
         id="path102"
         inkscape:connector-curvature="0" /><path
         d="M 9310.38,1480.91 H 4697.65 V 4454.16 H 9310.38 V 1480.91"
         style="fill:#ffffff;fill-opacity:1;fill-rule:nonzero;stroke:none"
         id="path104"
         inkscape:connector-curvature="0" /><path
         d="m 7194.26,1287.01 h -380.49 v 70.75 h 380.49 v -70.75"
         style="fill:#ffffff;fill-opacity:1;fill-rule:nonzero;stroke:none"
         id="path106"
         inkscape:connector-curvature="0" /><path
         d="m 9611.97,6743.68 c -72.58,119.95 -220.99,176.17 -355.73,139.2 l -0.75,-0.13 c -41.41,-15.3 -75.89,-44.76 -90.56,-91.03 -3.21,-10.17 -19.28,-5.91 -16.03,4.32 15.71,49.59 51.41,81.99 94.81,99.63 -48.36,149.35 -193.66,254.5 -352.59,241.84 -156.39,-12.47 -282.86,-131.95 -312.26,-284.47 13.16,-3.04 26.1,-7.29 38.64,-12.92 49.88,-22.38 88.72,-61.24 116.47,-107.88 5.49,-9.22 -8.81,-17.65 -14.29,-8.45 -9.13,15.34 -19.73,29.83 -31.73,43.05 -44.56,49.1 -108.02,78.14 -174.72,74.79 -67.4,-3.39 -139.85,-39.8 -184.96,-89.31 -51.69,-56.74 -79.31,-133.23 -71.95,-210.1 7.22,-75.45 46.9,-145.61 108.05,-190.64 56.7,-41.78 122.49,-60.54 192.3,-62.81 45.78,-1.49 91.6,-1.89 137.4,-2.25 130.92,-1.05 261.85,-0.83 392.78,-0.45 57.51,0.17 115.03,0.4 172.54,0.69 47.25,0.23 96.99,-3.28 143.48,5.95 152.05,30.18 266.48,170.35 250.43,327.54 -4.44,43.59 -18.65,85.94 -41.33,123.43"
         style="fill:#ffffff;fill-opacity:1;fill-rule:nonzero;stroke:none"
         id="path108"
         inkscape:connector-curvature="0" /><path
         d="m 9316.85,2135.47 h -4619.2 v 1654.86 h 4619.2 V 2135.47"
         style="fill:#5d6e7c;fill-opacity:1;fill-rule:nonzero;stroke:none"
         id="path110"
         inkscape:connector-curvature="0" /><path
         d="m 6365.88,3412.52 c -29.57,0 -59.14,0 -88.71,0 -8.09,0 -13.62,-3.98 -16.59,-9.42 -1.03,-1.53 -1.95,-3.2 -2.6,-5.19 -68.09,-207.12 -136.16,-414.24 -204.24,-621.36 -68.07,206.74 -136.13,413.48 -204.2,620.22 -2.79,8.49 -10.11,14.46 -19.19,14.6 -23,0.39 -45.99,0.77 -68.99,1.15 -9.11,0.14 -16.43,-6.36 -19.19,-14.61 -69.09,-206.46 -138.19,-412.92 -207.28,-619.38 -67.42,206.46 -134.83,412.92 -202.25,619.38 -2.74,8.38 -10.15,14.61 -19.19,14.61 -30.67,0 -61.33,0 -91.99,0 -12.33,0 -23.37,-12.81 -19.19,-25.2 91.26,-270.2 182.52,-540.4 273.78,-810.6 2.83,-8.37 10.08,-14.61 19.19,-14.61 25.19,0 50.38,0 75.56,0 9.15,0 16.38,6.25 19.19,14.61 68.06,202.19 136.11,404.38 204.17,606.59 67.72,-202.21 135.45,-404.4 203.17,-606.59 2.81,-8.37 10.1,-14.61 19.19,-14.61 25.55,0 51.11,0 76.66,0 9.15,0 16.38,6.25 19.19,14.61 90.9,270.2 181.8,540.4 272.7,810.6 4.16,12.39 -6.86,25.2 -19.19,25.2"
         style="fill:#ffffff;fill-opacity:1;fill-rule:nonzero;stroke:none"
         id="path112"
         inkscape:connector-curvature="0" /><path
         d="m 7583.66,3412.52 c -29.56,0 -59.13,0 -88.7,0 -8.09,0 -13.61,-3.98 -16.6,-9.42 -1.02,-1.53 -1.93,-3.2 -2.59,-5.19 -68.08,-207.12 -136.16,-414.24 -204.24,-621.36 -68.06,206.74 -136.13,413.48 -204.2,620.22 -2.8,8.49 -10.1,14.46 -19.19,14.6 -22.99,0.39 -45.99,0.77 -68.99,1.15 -9.11,0.14 -16.43,-6.36 -19.19,-14.61 -69.09,-206.46 -138.18,-412.92 -207.27,-619.38 -67.43,206.46 -134.85,412.92 -202.27,619.38 -2.73,8.38 -10.15,14.61 -19.19,14.61 -30.66,0 -61.32,0 -91.98,0 -12.33,0 -23.38,-12.81 -19.19,-25.2 91.26,-270.2 182.52,-540.4 273.79,-810.6 2.82,-8.37 10.08,-14.61 19.19,-14.61 25.18,0 50.37,0 75.55,0 9.15,0 16.37,6.25 19.19,14.61 68.06,202.19 136.12,404.38 204.17,606.59 67.73,-202.21 135.45,-404.4 203.18,-606.59 2.8,-8.37 10.09,-14.61 19.19,-14.61 25.54,0 51.1,0 76.66,0 9.15,0 16.36,6.25 19.18,14.61 90.89,270.2 181.79,540.4 272.69,810.6 4.17,12.39 -6.84,25.2 -19.19,25.2"
         style="fill:#ffffff;fill-opacity:1;fill-rule:nonzero;stroke:none"
         id="path114"
         inkscape:connector-curvature="0" /><path
         d="m 8801.46,3412.52 c -29.58,0 -59.15,0 -88.72,0 -8.08,0 -13.6,-3.98 -16.59,-9.42 -1.01,-1.53 -1.93,-3.2 -2.59,-5.19 -68.08,-207.12 -136.16,-414.24 -204.24,-621.36 -68.06,206.74 -136.14,413.48 -204.19,620.22 -2.81,8.49 -10.11,14.46 -19.19,14.6 -23,0.39 -46,0.77 -69,1.15 -9.11,0.14 -16.42,-6.36 -19.19,-14.61 -69.09,-206.46 -138.18,-412.92 -207.27,-619.38 -67.42,206.46 -134.85,412.92 -202.27,619.38 -2.73,8.38 -10.14,14.61 -19.19,14.61 -30.66,0 -61.31,0 -91.98,0 -12.32,0 -23.38,-12.81 -19.19,-25.2 91.26,-270.2 182.52,-540.4 273.79,-810.6 2.82,-8.37 10.08,-14.61 19.18,-14.61 25.19,0 50.37,0 75.56,0 9.16,0 16.37,6.25 19.19,14.61 68.06,202.19 136.12,404.38 204.18,606.59 67.72,-202.21 135.45,-404.4 203.17,-606.59 2.79,-8.37 10.09,-14.61 19.18,-14.61 25.56,0 51.11,0 76.66,0 9.16,0 16.38,6.25 19.19,14.61 90.9,270.2 181.8,540.4 272.69,810.6 4.17,12.39 -6.84,25.2 -19.18,25.2"
         style="fill:#ffffff;fill-opacity:1;fill-rule:nonzero;stroke:none"
         id="path116"
         inkscape:connector-curvature="0" /><path
         d="M 3456.92,4731.61 711.785,2942.48 1514.16,2563.18 848.035,1538.34 l 374.945,-243.7 374.94,-243.7 666.12,1024.84 672.41,-579.27 520.47,3235.1"
         style="fill:#2e4661;fill-opacity:1;fill-rule:nonzero;stroke:none"
         id="path118"
         inkscape:connector-curvature="0" /><path
         d="m 1055.72,1453.66 c -42.06,27.34 -84.126,54.69 -126.189,82.02 69.024,106.19 138.049,212.39 207.069,318.59 119.53,183.9 239.06,367.8 358.6,551.7 27.57,42.44 55.15,84.86 82.73,127.29 12.25,18.85 2.29,39.44 -16.29,48.23 -233.99,110.62 -468,221.23 -701.999,331.85 -15.176,7.18 -30.364,14.35 -45.547,21.52 74.121,48.31 148.23,96.61 222.346,144.91 218.9,142.68 437.81,285.34 656.71,428.02 263.81,171.93 527.62,343.87 791.43,515.8 228.14,148.69 456.29,297.38 684.42,446.08 93.94,61.22 187.97,122.28 281.83,183.62 -13.6,-84.57 -27.21,-169.15 -40.81,-253.72 -41.5,-257.98 -83.02,-515.96 -124.52,-773.94 -50.02,-310.89 -100.04,-621.78 -150.06,-932.67 -43.25,-268.87 -86.5,-537.73 -129.77,-806.6 -14.35,-89.23 -28.71,-178.47 -43.07,-267.72 -3.67,-22.88 -9.31,-46.91 -13.73,-70.91 -181.96,156.75 -363.91,313.5 -545.86,470.25 -28.04,24.15 -56.08,48.31 -84.11,72.46 -13.08,11.26 -36.05,4.24 -44.59,-8.92 -74.93,-115.28 -149.87,-230.57 -224.8,-345.85 -119.53,-183.9 -239.06,-367.81 -358.59,-551.72 -21.81,-33.54 -43.62,-67.09 -65.42,-100.63 -189.92,123.45 -379.85,246.89 -569.78,370.34 z M 1661.69,1021 c 74.93,115.29 149.86,230.57 224.79,345.85 119.54,183.91 239.07,367.82 358.61,551.72 20.99,32.32 42,64.63 63.01,96.94 187.8,-161.79 375.61,-323.59 563.4,-485.39 28.04,-24.15 56.09,-48.3 84.13,-72.46 20.01,-17.24 46.53,3.43 49.89,24.34 17.29,107.46 34.58,214.91 51.86,322.37 41.52,257.98 83.02,515.95 124.52,773.93 50.01,310.89 100.03,621.79 150.05,932.68 43.26,268.86 86.52,537.72 129.77,806.59 14.36,89.23 28.72,178.48 43.07,267.72 6.73,41.79 16.15,84.08 20.32,126.22 0.17,1.87 0.59,3.74 0.9,5.6 2.23,13.91 -3.79,23.5 -12.87,28.66 -8.15,8.18 -20.22,11.16 -33.29,2.65 -91.19,-59.44 -182.37,-118.86 -273.54,-178.29 -218.92,-142.67 -437.81,-285.34 -656.72,-428.01 -263.81,-171.94 -527.62,-343.87 -791.43,-515.8 -228.14,-148.7 -456.28,-297.39 -684.42,-446.08 -111.435,-72.62 -223.064,-144.93 -334.287,-217.87 -1.582,-1.03 -3.164,-2.06 -4.746,-3.09 -24.238,-15.8 -22.832,-46.78 3.621,-59.29 234.008,-110.62 468.012,-221.23 702.012,-331.85 21.31,-10.08 42.62,-20.14 63.93,-30.22 -68.22,-104.94 -136.43,-209.9 -204.64,-314.84 -119.53,-183.9 -239.06,-367.81 -358.607,-551.72 -27.566,-42.43 -55.144,-84.85 -82.722,-127.27 -9.375,-14.43 -5.821,-35.02 8.918,-44.59 199.011,-129.36 398.031,-258.72 597.051,-388.08 50.94,-33.1 101.88,-66.22 152.83,-99.33 14.42,-9.38 35.02,-5.81 44.59,8.91"
         style="fill:#ffffff;fill-opacity:1;fill-rule:nonzero;stroke:none"
         id="path120"
         inkscape:connector-curvature="0" /><path
         d="m 2092.87,3234.26 79.46,-20.82 64.88,34.96 14.34,-8.83 -11.61,-17.44 62.09,14.9 45.75,-20.54 9.67,-63.23 -35.27,-58.92 -68.46,-4.87 -71.94,33.07 -110.29,24.02 21.38,87.7"
         style="fill:#eacdb0;fill-opacity:1;fill-rule:nonzero;stroke:none"
         id="path122"
         inkscape:connector-curvature="0" /><path
         d="m 2160.5,3231.42 -594.09,188.93 c -46.01,51.06 -92.01,102.13 -138,153.19 -51,56.6 -124.5,174.42 -200.07,197.56 -20.5,6.27 -42.29,6.62 -63.72,6.45 -39.42,-0.32 -79.77,-2.4 -116.23,-17.38 -36.48,-14.98 -68.839,-45.2 -76.476,-83.88 -21.816,-110.36 120.356,-224.84 182.786,-300.25 61.47,-74.25 122.95,-148.5 184.42,-222.76 l 817.37,-74.36 4.01,152.5"
         style="fill:#6f7f8c;fill-opacity:1;fill-rule:nonzero;stroke:none"
         id="path124"
         inkscape:connector-curvature="0" /><path
         d="m 1225.33,6746.2 c -43.7,0 -81.5,-25.6 -99.09,-62.51 l -236.728,31.95 c -1.867,42.78 -21.004,81.17 -50.633,108.42 l 133.836,192.55 c 15.676,-6.63 32.915,-10.31 50.985,-10.31 72.06,0 130.68,58.36 130.68,130.08 0,71.72 -58.62,130.08 -130.68,130.08 -72.052,0 -130.673,-58.36 -130.673,-130.08 0,-30.7 10.743,-58.94 28.672,-81.21 L 783.945,6856.98 c -16.289,5.67 -33.777,8.78 -51.992,8.78 -86.965,0 -157.715,-70.43 -157.715,-157 0,-86.57 70.75,-156.99 157.715,-156.99 66.375,0 123.301,41.02 146.531,98.93 l 238.846,-32.23 c 8.92,-51.3 53.95,-90.45 108,-90.45 60.43,0 109.59,48.93 109.59,109.09 0,60.15 -49.16,109.09 -109.59,109.09"
         style="fill:#ffffff;fill-opacity:1;fill-rule:nonzero;stroke:none"
         id="path126"
         inkscape:connector-curvature="0" /><path
         d="m 7063.37,5797.61 c 0,-28.71 0.05,-57.42 0,-86.13 0,-1.55 0.02,-3.09 0,-4.64 -0.04,-3.33 -0.29,-6.64 -0.4,-9.97 l -0.03,-1.14 -0.14,-0.65 c -1.28,-6.92 -3.28,-13.43 -5.28,-20.15 l -0.83,-2.22 c -1.03,-2.19 -2.09,-4.34 -3.24,-6.46 -2.02,-3.74 -4.3,-7.28 -6.65,-10.78 l -3.78,-4.94 c -1.37,-1.55 -2.79,-3.07 -4.23,-4.56 -2.18,-2.22 -4.43,-4.37 -6.77,-6.43 -0.95,-0.83 -1.93,-1.63 -2.9,-2.43 l -0.84,-0.6 c -4.78,-3.2 -9.61,-6.25 -14.74,-8.86 -0.98,-0.49 -2,-0.94 -2.99,-1.42 l -5.93,-2.22 c -5.11,-1.67 -10.29,-2.83 -15.54,-3.97 l -1.74,-0.41 -1.65,-0.04 c -3.33,-0.11 -6.64,-0.35 -9.98,-0.39 -71.4,0 -142.82,0 -214.24,0 -5.2,0 -10.41,0 -15.62,0 0,17.51 0,35.03 0,52.55 0,36.32 -2.57,71 -21.25,103.52 -28.33,49.32 -81.78,79.29 -138.31,79.92 -12.65,0.15 -25.3,0 -37.95,0 -15.24,0 -30.49,0 -45.74,0 0.05,2.67 -0.01,5.33 0.07,8 0.05,2.22 0.27,4.41 0.35,6.62 l 0.03,1.76 0.41,1.64 c 1.22,5.23 2.3,10.43 3.97,15.54 l 2.22,5.98 c 0.69,1.45 1.4,2.89 2.16,4.32 1.21,2.31 2.49,4.59 3.84,6.83 0.56,0.9 4.85,7.02 4.96,7.45 2.75,3.35 5.69,6.56 8.78,9.59 1.87,1.81 3.82,3.5 5.75,5.24 l 2.54,1.95 c 3.89,2.66 7.84,5.22 11.99,7.47 1.98,1.07 4,2.08 6.03,3.03 -0.52,-0.37 6,2.17 7.18,2.54 5.06,1.58 10.21,2.8 15.42,3.74 l 1.99,0.21 c 3.33,0.1 6.64,0.36 9.97,0.4 h 2.33 c 5.74,0.02 11.48,0 17.22,0 24.23,0 48.46,0 72.69,0 66.3,0 132.6,0 198.91,0 24.54,0 49.08,0 73.62,0 5.98,0 11.96,0.02 17.94,0 h 2.66 c 4.2,-0.05 8.36,-0.26 12.53,-0.65 l 0.92,-0.19 c 4.21,-0.9 8.37,-1.8 12.5,-3.03 2.03,-0.61 4.02,-1.38 6.05,-1.98 l 1.7,-0.48 1.38,-0.74 c 4.66,-2.42 9.26,-4.78 13.68,-7.63 l 5.06,-3.5 2.57,-2.15 c 5.07,-4.47 9.74,-9.34 14.02,-14.56 l 0.16,-0.2 0.74,-1.26 c 1.61,-2.69 3.42,-5.23 4.98,-7.95 1.17,-2.02 6.23,-13.47 4.91,-9.58 1.68,-4.62 3.18,-9.29 4.34,-14.08 0.53,-2.16 0.97,-4.34 1.38,-6.52 -0.14,0.25 0.58,-5.21 0.64,-6.48 1.21,-22.87 0.18,-46.02 0.18,-68.91 z m -389.81,-264.93 -0.02,-1.14 -0.14,-0.65 c -1.28,-6.92 -3.28,-13.43 -5.28,-20.15 l -0.83,-2.22 c -1.03,-2.18 -2.09,-4.34 -3.25,-6.46 -2.02,-3.74 -4.29,-7.28 -6.65,-10.78 l -3.78,-4.93 c -1.36,-1.56 -2.78,-3.08 -4.23,-4.57 -2.17,-2.22 -4.43,-4.37 -6.76,-6.43 -0.95,-0.84 -1.94,-1.63 -2.9,-2.44 l -0.84,-0.59 c -4.79,-3.2 -9.61,-6.25 -14.75,-8.86 -0.98,-0.49 -1.99,-0.95 -2.99,-1.42 l -5.93,-2.22 c -5.1,-1.67 -10.29,-2.83 -15.53,-3.98 l -1.74,-0.4 -1.65,-0.04 c -3.33,-0.11 -6.64,-0.35 -9.98,-0.39 -104.39,0 -208.78,0 -313.17,0 -20.83,0 -41.67,0 -62.5,0 -3.25,0 -6.5,-0.04 -9.75,0 -3.81,0.04 -7.59,0.23 -11.37,0.55 1.84,0.01 -9.31,1.86 -11.44,2.44 -3.09,0.83 -6.07,1.94 -9.12,2.85 l -1.25,0.36 -0.42,0.2 c -6.22,2.91 -11.84,6.51 -17.71,10.01 l -2.15,1.49 c -1.77,1.46 -3.5,2.98 -5.18,4.53 -3.83,3.54 -7.26,7.36 -10.72,11.27 l -0.99,1.09 -0.91,1.56 c -1.07,1.79 -2.3,3.49 -3.38,5.27 -1.63,2.67 -3.15,5.41 -4.58,8.2 -0.65,1.3 -1.27,2.63 -1.88,3.95 l -0.18,0.48 c -1.94,5.53 -3.69,11.1 -4.92,16.86 -0.24,1.09 -0.41,2.2 -0.62,3.29 l -0.68,6.57 c -0.19,3.49 -0.17,6.97 -0.18,10.45 -0.06,28.22 0,56.42 0,84.63 0,22.62 -0.6,45.33 0.05,67.94 0.06,2.22 0.28,4.42 0.35,6.62 l 0.03,1.76 0.41,1.64 c 1.22,5.24 2.31,10.43 3.99,15.54 l 2.2,5.97 c 0.7,1.46 1.41,2.91 2.16,4.33 1.21,2.32 2.49,4.59 3.85,6.83 0.56,0.91 4.84,7.02 4.95,7.45 2.76,3.35 5.69,6.56 8.79,9.59 1.87,1.81 3.82,3.5 5.74,5.24 l 2.54,1.96 c 3.9,2.65 7.84,5.21 11.99,7.46 1.99,1.07 4.01,2.07 6.04,3.03 -0.53,-0.37 5.99,2.17 7.18,2.54 5.06,1.58 10.2,2.81 15.42,3.74 l 1.99,0.21 c 3.33,0.11 6.64,0.36 9.97,0.4 h 2.32 c 5.75,0.02 11.49,0 17.23,0 24.23,0 48.46,0 72.69,0 45.87,0 91.75,0 137.63,0 v -1.54 h -0.3 v -4.63 l 0.3,-0.09 c 0,-7.27 0,-14.53 0,-21.8 0,-28.85 -2.1,-58.93 4.76,-87.2 13.38,-55.14 58.25,-100.42 112.88,-115.19 21.08,-5.7 42.25,-5.56 63.75,-5.56 18.16,0 36.32,0 54.48,0 2.45,0 4.9,0 7.36,0 v -0.02 c 0,-1.54 0.02,-3.08 0,-4.63 -0.04,-3.34 -0.29,-6.64 -0.4,-9.97 z m -74.8,249.98 0.92,-0.19 c 4.21,-0.9 8.38,-1.8 12.5,-3.03 2.03,-0.6 4.01,-1.38 6.05,-1.98 l 1.69,-0.48 1.39,-0.74 c 4.66,-2.43 9.26,-4.78 13.68,-7.63 l 5.06,-3.5 2.57,-2.15 c 5.07,-4.47 9.73,-9.34 14.01,-14.56 l 0.17,-0.2 0.74,-1.26 c 1.61,-2.68 3.42,-5.23 4.98,-7.95 1.16,-2.02 6.23,-13.47 4.9,-9.58 1.68,-4.62 3.19,-9.29 4.35,-14.08 0.52,-2.16 0.96,-4.34 1.37,-6.52 -0.13,0.25 0.58,-5.21 0.65,-6.49 1.21,-22.86 0.17,-46.01 0.17,-68.89 0,-4.75 0,-9.5 0,-14.23 -2.46,0 -4.91,0 -7.36,0 -1.36,0 -2.7,0 -4.06,0 -20.83,0 -41.66,0 -62.49,0 -3.25,0 -6.51,-0.04 -9.76,0 -3.81,0.04 -7.58,0.23 -11.36,0.55 1.83,0.01 -9.31,1.86 -11.45,2.44 -3.09,0.83 -6.06,1.94 -9.12,2.85 l -1.25,0.36 -0.41,0.2 c -6.22,2.91 -11.85,6.51 -17.72,10.01 l -2.14,1.5 c -1.77,1.45 -3.51,2.97 -5.19,4.52 -3.83,3.54 -7.26,7.36 -10.71,11.27 l -1,1.1 -0.91,1.55 c -1.06,1.79 -2.29,3.49 -3.38,5.27 -1.63,2.67 -3.15,5.41 -4.58,8.21 -0.65,1.29 -1.26,2.62 -1.87,3.94 l -0.19,0.47 c -1.94,5.54 -3.69,11.11 -4.92,16.87 -0.23,1.09 -0.41,2.2 -0.61,3.3 l -0.69,6.56 c -0.18,3.49 -0.16,6.97 -0.17,10.45 -0.05,24.23 -0.01,48.46 0,72.69 21,0 42,0 63.01,0 5.97,0 11.96,0.02 17.93,0 h 2.67 c 4.2,-0.05 8.36,-0.26 12.53,-0.65 z m 515.23,156.81 c -28.33,49.31 -81.77,79.28 -138.3,79.91 -12.64,0.15 -25.3,0 -37.95,0 -65.81,0 -131.62,0 -197.44,0 -49.24,0 -98.47,0.19 -147.71,0 -44.3,-0.15 -87.97,-17.31 -118.37,-50.09 -29.56,-31.86 -42.54,-71.44 -43.33,-114.1 -26.67,0 -53.33,0 -79.99,0 -49.24,0 -98.48,0.19 -147.72,0 -44.29,-0.15 -87.97,-17.31 -118.37,-50.09 -30.52,-32.91 -43.48,-74.01 -43.48,-118.26 0,-31.92 0,-63.85 0,-95.78 0,-28.85 -2.1,-58.93 4.75,-87.2 13.38,-55.14 58.26,-100.42 112.88,-115.19 21.09,-5.7 42.25,-5.56 63.75,-5.56 117.94,0 235.88,0 353.82,0 3.26,0 6.52,0 9.78,0 57.85,0.77 113.36,32.26 140.55,84.05 9.46,18.03 14.18,36.4 16.58,55.24 l 0.08,-0.03 0.04,1.04 c 0.97,7.88 1.58,15.84 1.89,23.89 5.34,0 10.68,0 16.02,0 68.16,0 136.31,0 204.47,0 3.26,0 6.51,0 9.77,0 57.85,0.77 113.36,32.26 140.55,84.05 17.14,32.67 18.99,66.4 18.99,102.15 0,34.14 0,68.29 0,102.44 0,36.32 -2.56,71 -21.26,103.53"
         style="fill:#ffffff;fill-opacity:1;fill-rule:nonzero;stroke:none"
         id="path128"
         inkscape:connector-curvature="0" /><path
         d="m 9395.21,2961.11 c 0.22,2.95 0.65,5.87 1.37,8.76 6.78,26.9 33.75,33.27 46.1,54.62 5.5,9.52 -0.16,41.91 17.86,39.09 6.63,-1.1 29.3,-2.88 51.94,-6.09 18.53,4.28 37.29,7.72 55.32,13.73 45.67,15.19 124.2,101.09 170.99,54.43 9.05,-9.02 18.29,-18.31 23.63,-29.92 4.37,-9.49 5.88,-20.03 6.87,-30.43 0.76,-8.11 3.9,-20.79 -1.13,-26.92 -5.29,-6.44 -25.86,-10.68 -33.76,-13.94 -22.59,-9.34 -45.18,-18.67 -67.78,-28 -22.16,-9.16 -47.4,-22.01 -51.3,-45.67 -0.85,-5.18 -0.55,-10.56 -2.11,-15.57 -1.74,-5.65 -5.67,-10.34 -9.63,-14.73 -14.49,-16.13 -30.65,-31.49 -48.56,-43.84 -32.03,-22.06 -88.72,0.31 -121.37,10.55 -8.12,2.53 -16.45,5.44 -22.67,11.26 -10.11,9.48 -12.47,24.37 -14.26,38.11 -1.06,8.14 -2.1,16.44 -1.51,24.56"
         style="fill:#b99a6f;fill-opacity:1;fill-rule:nonzero;stroke:none"
         id="path130"
         inkscape:connector-curvature="0" /><path
         d="m 10220,3303.21 c -12.5,-28.1 -25.1,-56.57 -44.6,-80.37 -15.4,-18.99 -34.8,-34.41 -54.3,-49.2 -121.15,-91.67 -256.67,-164.32 -400.06,-214.47 -42.92,57.14 -74.39,122.86 -91.99,192.13 105.32,66.98 205.29,142.38 298.64,225.22 19.09,16.94 38.12,34.45 52.02,55.86 20.02,30.86 28.09,67.72 35.79,103.69 29.8,139.47 59.7,278.95 89.5,418.43 18,84.15 37.3,171.21 88.8,240.15 142.8,191.14 403.8,39.53 345.8,-175.39 -65.2,-241.32 -218.1,-486.84 -319.6,-716.05"
         style="fill:#dae8ef;fill-opacity:1;fill-rule:nonzero;stroke:none"
         id="path132"
         inkscape:connector-curvature="0" /></g></g></svg>